<?xml version="1.0" encoding="UTF-8"?>
<!-- Title: 15. Y:\OneDrive - Monash University\Year 2\Semester 2\FIT2082\Simulation\NetworkSimilaritySimulation\network.net (100) -->
<!-- Creator: Pajek 5.13: http://mrvar.fdv.uni-lj.si/pajek -->
<!-- CreationDate: 08-26-2021, 9:01:02 -->
<svg xml:space="preserve" viewBox="0 0 1113 781" xmlns="http://www.w3.org/2000/svg" xmlns:xlink="http://www.w3.org/1999/xlink" xmlns:inkscape="http://www.inkscape.org/namespaces/inkscape">
<title>15. Y:\OneDrive - Monash University\Year 2\Semester 2\FIT2082\Simulation\NetworkSimilaritySimulation\network.net (100)</title>
<g inkscape:groupmode="layer" id="PajekSig" inkscape:label="PajekSignature">
<g transform="translate(3 763)">
<g transform="scale(0.1)">
<g transform="matrix(1 0 0 -1 0 96)">
<path d="M   7.67  49.98 L  31.76  72.76 L  46.91  78.63
         L  57.23  80.49 M  72.86  65.23 L  65.73  83.25
         L  57.06  75.49 L  56.75  68.65 M  76.27  68.03
         L  75.65  84.50 L  93.92  91.02 L 107.24  74.87
         M  80.29  67.72 L  89.28  84.81 L 104.77  81.70
         L 116.23  73.31 L 121.18  59.33 M  56.75  81.08
         L  71.31  64.30"
         style="fill:none; stroke:saddlebrown; stroke-width:5;"/>
<path d="M  86.18  70.21 L  91.45  73.00 L  95.78  69.58
         M  91.14  60.88 L  96.09  62.75 L  98.26  59.33"
         style="fill:none; stroke:saddlebrown; stroke-width:1.5;"/>
<path d="M  81.07  49.08 L  87.81  49.08 L  93.30  54.38
         L  93.30  60.88 L  93.30  67.39 L  87.81  72.69
         L  81.07  72.69 L  74.33  72.69 L  68.83  67.39
         L  68.83  60.88 L  68.83  54.38 L  74.33  49.08
         L  81.07  49.08 z"
         style="fill:maroon; stroke:saddlebrown; stroke-width:1;"/>
<path d="M  54.63  37.53 L  68.53  43.56 L  75.39  55.85
         L  69.90  65.35 L  64.41  72.86 L  48.60  74.06
         L  34.71  68.04 L  20.81  55.02 L  15.95  40.72
         L  17.44  33.22 L  24.92  28.72 L  40.73  30.51
         L  54.63  37.53 z"
         style="fill:maroon; stroke:saddlebrown; stroke-width:1;" />
<path d="M  77.82  50.63 L 103.84  59.33 L 131.10  43.80
         L 139.46  27.95 L 139.15  15.83 M  35.99   5.27
         L  47.15  32.92 L  61.71  50.01 L  70.07  46.90
         L  82.77  45.04 L  83.39  27.02 L  65.42  12.11
         M  68.52  50.63 L  91.14  49.39 L 103.53  43.17
         L 117.16  22.67 L 115.30   8.38"
         style="fill:none; stroke:saddlebrown; stroke-width:5;"/>
<path d="M  41.57  54.98 L  60.16  64.61 M  52.41  66.17
         L  57.99  57.47"
         style="fill:none; stroke:white; stroke-width:5;"/>
</g>
</g>
<animateMotion dur="20s" path="M3 0 L1095 0" begin="120s" fill="freeze"/>
</g>
<g transform="translate(3 763)">
<g transform="scale(0.1)">
<text x="5" y="140" style="font-family:Brush Script MT;font-size:75px;fill:green;">Pajek</text>
</g>
<animateMotion dur="0.1s" path="M3 0 L1095 0" begin="120s" fill="freeze"/>
</g>
</g>      <!-- Layer Signature -->

<g inkscape:groupmode="layer" id="PajekNet" inkscape:label="PajekNetwork">

<g transform="translate(329.66 449.13)">
<g transform="rotate(11.70)">
<text x="0" y="0" style="font-family:Arial;font-size:15.00px;fill:rgb(0,0,0);text-anchor:middle;">2</text>
</g></g>
<!-- Edge:     1    2 -->
<line x1="271.88" y1="447.37" x2="383.38" y2="470.47" style="stroke-width:2.00;stroke:rgb(0,112,145)"/>
<g transform="translate(259.22 404.40)">
<g transform="rotate(266.49)">
<text x="0" y="0" style="font-family:Arial;font-size:15.00px;fill:rgb(0,0,0);text-anchor:middle;">4</text>
</g></g>
<!-- Edge:     1    5 -->
<line x1="271.88" y1="447.37" x2="266.53" y2="360.20" style="stroke-width:2.00;stroke:rgb(0,112,145)"/>
<g transform="translate(407.63 427.45)">
<g transform="rotate(-48.91)">
<text x="0" y="0" style="font-family:Arial;font-size:15.00px;fill:rgb(0,0,0);text-anchor:middle;">1</text>
</g></g>
<!-- Edge:     2    3 -->
<line x1="383.38" y1="470.47" x2="446.95" y2="397.57" style="stroke-width:2.00;stroke:rgb(0,112,145)"/>
<g transform="translate(403.97 370.77)">
<g transform="rotate(223.34)">
<text x="0" y="0" style="font-family:Arial;font-size:15.00px;fill:rgb(0,0,0);text-anchor:middle;">3</text>
</g></g>
<!-- Edge:     3    4 -->
<line x1="446.95" y1="397.57" x2="374.73" y2="329.42" style="stroke-width:2.00;stroke:rgb(0,112,145)"/>
<g transform="translate(323.37 354.43)">
<g transform="rotate(164.12)">
<text x="0" y="0" style="font-family:Arial;font-size:15.00px;fill:rgb(0,0,0);text-anchor:middle;">3</text>
</g></g>
<!-- Edge:     4    5 -->
<line x1="374.73" y1="329.42" x2="266.53" y2="360.20" style="stroke-width:2.00;stroke:rgb(0,112,145)"/>
<g transform="translate(572.57 41.64)">
<g transform="rotate(-22.45)">
<text x="0" y="0" style="font-family:Arial;font-size:15.00px;fill:rgb(0,0,0);text-anchor:middle;">1</text>
</g></g>
<!-- Edge:     6    8 -->
<line x1="547.77" y1="62.70" x2="605.00" y2="39.05" style="stroke-width:2.00;stroke:rgb(0,112,145)"/>
<g transform="translate(544.02 98.26)">
<g transform="rotate(112.26)">
<text x="0" y="0" style="font-family:Arial;font-size:15.00px;fill:rgb(0,0,0);text-anchor:middle;">1</text>
</g></g>
<!-- Edge:     6   15 -->
<line x1="547.77" y1="62.70" x2="521.77" y2="126.24" style="stroke-width:2.00;stroke:rgb(0,112,145)"/>
<g transform="translate(585.54 563.86)">
<g transform="rotate(180.00)">
<text x="0" y="0" style="font-family:Arial;font-size:15.00px;fill:rgb(0,0,0);text-anchor:middle;">1</text>
</g></g>
<!-- Edge:     7   12 -->
<line x1="679.52" y1="553.86" x2="491.57" y2="553.86" style="stroke-width:2.00;stroke:rgb(0,112,145)"/>
<g transform="translate(627.01 531.07)">
<g transform="rotate(213.52)">
<text x="0" y="0" style="font-family:Arial;font-size:15.00px;fill:rgb(0,0,0);text-anchor:middle;">2</text>
</g></g>
<!-- Edge:     7   13 -->
<line x1="679.52" y1="553.86" x2="585.54" y2="491.60" style="stroke-width:2.00;stroke:rgb(0,112,145)"/>
<g transform="translate(637.27 45.32)">
<g transform="rotate(28.71)">
<text x="0" y="0" style="font-family:Arial;font-size:15.00px;fill:rgb(0,0,0);text-anchor:middle;">2</text>
</g></g>
<!-- Edge:     8    9 -->
<line x1="605.00" y1="39.05" x2="659.93" y2="69.14" style="stroke-width:2.00;stroke:rgb(0,112,145)"/>
<g transform="translate(679.71 99.29)">
<g transform="rotate(72.83)">
<text x="0" y="0" style="font-family:Arial;font-size:15.00px;fill:rgb(0,0,0);text-anchor:middle;">2</text>
</g></g>
<!-- Edge:     9   11 -->
<line x1="659.93" y1="69.14" x2="680.38" y2="135.34" style="stroke-width:2.00;stroke:rgb(0,112,145)"/>
<g transform="translate(533.03 593.33)">
<g transform="rotate(213.52)">
<text x="0" y="0" style="font-family:Arial;font-size:15.00px;fill:rgb(0,0,0);text-anchor:middle;">1</text>
</g></g>
<!-- Edge:    10   12 -->
<line x1="585.54" y1="616.12" x2="491.57" y2="553.86" style="stroke-width:2.00;stroke:rgb(0,112,145)"/>
<g transform="translate(575.54 553.86)">
<g transform="rotate(-90.00)">
<text x="0" y="0" style="font-family:Arial;font-size:15.00px;fill:rgb(0,0,0);text-anchor:middle;">4</text>
</g></g>
<!-- Edge:    10   13 -->
<line x1="585.54" y1="616.12" x2="585.54" y2="491.60" style="stroke-width:2.00;stroke:rgb(0,112,145)"/>
<g transform="translate(676.63 170.90)">
<g transform="rotate(112.26)">
<text x="0" y="0" style="font-family:Arial;font-size:15.00px;fill:rgb(0,0,0);text-anchor:middle;">3</text>
</g></g>
<!-- Edge:    11   14 -->
<line x1="680.38" y1="135.34" x2="654.37" y2="198.88" style="stroke-width:2.00;stroke:rgb(0,112,145)"/>
<g transform="translate(629.58 219.95)">
<g transform="rotate(157.54)">
<text x="0" y="0" style="font-family:Arial;font-size:15.00px;fill:rgb(0,0,0);text-anchor:middle;">3</text>
</g></g>
<!-- Edge:    14   17 -->
<line x1="654.37" y1="198.88" x2="597.14" y2="222.54" style="stroke-width:2.00;stroke:rgb(0,112,145)"/>
<g transform="translate(541.54 156.40)">
<g transform="rotate(72.84)">
<text x="0" y="0" style="font-family:Arial;font-size:15.00px;fill:rgb(0,0,0);text-anchor:middle;">1</text>
</g></g>
<!-- Edge:    15   16 -->
<line x1="521.77" y1="126.24" x2="542.21" y2="192.45" style="stroke-width:2.00;stroke:rgb(0,112,145)"/>
<g transform="translate(574.48 198.72)">
<g transform="rotate(28.71)">
<text x="0" y="0" style="font-family:Arial;font-size:15.00px;fill:rgb(0,0,0);text-anchor:middle;">5</text>
</g></g>
<!-- Edge:    16   17 -->
<line x1="542.21" y1="192.45" x2="597.14" y2="222.54" style="stroke-width:2.00;stroke:rgb(0,112,145)"/>
<g transform="translate(202.14 593.33)">
<g transform="rotate(146.48)">
<text x="0" y="0" style="font-family:Arial;font-size:15.00px;fill:rgb(0,0,0);text-anchor:middle;">3</text>
</g></g>
<!-- Edge:    18   19 -->
<line x1="243.60" y1="553.86" x2="149.63" y2="616.12" style="stroke-width:2.00;stroke:rgb(0,112,145)"/>
<g transform="translate(191.09 531.07)">
<g transform="rotate(213.52)">
<text x="0" y="0" style="font-family:Arial;font-size:15.00px;fill:rgb(0,0,0);text-anchor:middle;">3</text>
</g></g>
<!-- Edge:    18   22 -->
<line x1="243.60" y1="553.86" x2="149.63" y2="491.60" style="stroke-width:2.00;stroke:rgb(0,112,145)"/>
<g transform="translate(97.12 593.33)">
<g transform="rotate(213.52)">
<text x="0" y="0" style="font-family:Arial;font-size:15.00px;fill:rgb(0,0,0);text-anchor:middle;">3</text>
</g></g>
<!-- Edge:    19   20 -->
<line x1="149.63" y1="616.12" x2="55.65" y2="553.86" style="stroke-width:2.00;stroke:rgb(0,112,145)"/>
<g transform="translate(97.12 514.40)">
<g transform="rotate(-33.52)">
<text x="0" y="0" style="font-family:Arial;font-size:15.00px;fill:rgb(0,0,0);text-anchor:middle;">2</text>
</g></g>
<!-- Edge:    20   22 -->
<line x1="55.65" y1="553.86" x2="149.63" y2="491.60" style="stroke-width:2.00;stroke:rgb(0,112,145)"/>
<g transform="translate(234.37 696.83)">
<g transform="rotate(137.41)">
<text x="0" y="0" style="font-family:Arial;font-size:15.00px;fill:rgb(0,0,0);text-anchor:middle;">5</text>
</g></g>
<!-- Edge:    21   24 -->
<line x1="284.69" y1="636.98" x2="170.51" y2="741.95" style="stroke-width:2.00;stroke:rgb(0,112,145)"/>
<g transform="translate(170.51 646.98)">
<g transform="rotate(180.00)">
<text x="0" y="0" style="font-family:Arial;font-size:15.00px;fill:rgb(0,0,0);text-anchor:middle;">3</text>
</g></g>
<!-- Edge:    21   25 -->
<line x1="284.69" y1="636.98" x2="56.32" y2="636.98" style="stroke-width:2.00;stroke:rgb(0,112,145)"/>
<g transform="translate(920.60 205.58)">
<g transform="rotate(224.78)">
<text x="0" y="0" style="font-family:Arial;font-size:15.00px;fill:rgb(0,0,0);text-anchor:middle;">2</text>
</g></g>
<!-- Edge:    23   28 -->
<line x1="951.89" y1="222.54" x2="903.41" y2="174.43" style="stroke-width:2.00;stroke:rgb(0,112,145)"/>
<g transform="translate(982.84 209.76)">
<g transform="rotate(-5.06)">
<text x="0" y="0" style="font-family:Arial;font-size:15.00px;fill:rgb(0,0,0);text-anchor:middle;">3</text>
</g></g>
<!-- Edge:    23   30 -->
<line x1="951.89" y1="222.54" x2="1015.57" y2="216.90" style="stroke-width:2.00;stroke:rgb(0,112,145)"/>
<g transform="translate(106.65 696.83)">
<g transform="rotate(222.59)">
<text x="0" y="0" style="font-family:Arial;font-size:15.00px;fill:rgb(0,0,0);text-anchor:middle;">2</text>
</g></g>
<!-- Edge:    24   25 -->
<line x1="170.51" y1="741.95" x2="56.32" y2="636.98" style="stroke-width:2.00;stroke:rgb(0,112,145)"/>
<g transform="translate(910.95 136.94)">
<g transform="rotate(86.22)">
<text x="0" y="0" style="font-family:Arial;font-size:15.00px;fill:rgb(0,0,0);text-anchor:middle;">1</text>
</g></g>
<!-- Edge:    26   28 -->
<line x1="898.54" y1="100.76" x2="903.41" y2="174.43" style="stroke-width:2.00;stroke:rgb(0,112,145)"/>
<g transform="translate(911.30 66.77)">
<g transform="rotate(-53.44)">
<text x="0" y="0" style="font-family:Arial;font-size:15.00px;fill:rgb(0,0,0);text-anchor:middle;">1</text>
</g></g>
<!-- Edge:    26   31 -->
<line x1="898.54" y1="100.76" x2="940.12" y2="44.69" style="stroke-width:2.00;stroke:rgb(0,112,145)"/>
<g transform="translate(1044.39 194.82)">
<g transform="rotate(126.56)">
<text x="0" y="0" style="font-family:Arial;font-size:15.00px;fill:rgb(0,0,0);text-anchor:middle;">4</text>
</g></g>
<!-- Edge:    27   30 -->
<line x1="1057.15" y1="160.82" x2="1015.57" y2="216.90" style="stroke-width:2.00;stroke:rgb(0,112,145)"/>
<g transform="translate(1044.73 124.65)">
<g transform="rotate(266.22)">
<text x="0" y="0" style="font-family:Arial;font-size:15.00px;fill:rgb(0,0,0);text-anchor:middle;">5</text>
</g></g>
<!-- Edge:    27   33 -->
<line x1="1057.15" y1="160.82" x2="1052.28" y2="87.16" style="stroke-width:2.00;stroke:rgb(0,112,145)"/>
<g transform="translate(972.85 51.83)">
<g transform="rotate(174.94)">
<text x="0" y="0" style="font-family:Arial;font-size:15.00px;fill:rgb(0,0,0);text-anchor:middle;">2</text>
</g></g>
<!-- Edge:    29   31 -->
<line x1="1003.81" y1="39.05" x2="940.12" y2="44.69" style="stroke-width:2.00;stroke:rgb(0,112,145)"/>
<g transform="translate(1035.09 56.01)">
<g transform="rotate(44.78)">
<text x="0" y="0" style="font-family:Arial;font-size:15.00px;fill:rgb(0,0,0);text-anchor:middle;">1</text>
</g></g>
<!-- Edge:    29   33 -->
<line x1="1003.81" y1="39.05" x2="1052.28" y2="87.16" style="stroke-width:2.00;stroke:rgb(0,112,145)"/>
<g transform="translate(814.71 440.68)">
<g transform="rotate(-22.38)">
<text x="0" y="0" style="font-family:Arial;font-size:15.00px;fill:rgb(0,0,0);text-anchor:middle;">1</text>
</g></g>
<!-- Edge:    32   34 -->
<line x1="768.62" y1="470.47" x2="868.41" y2="429.38" style="stroke-width:2.00;stroke:rgb(0,112,145)"/>
<g transform="translate(722.21 447.52)">
<g transform="rotate(217.45)">
<text x="0" y="0" style="font-family:Arial;font-size:15.00px;fill:rgb(0,0,0);text-anchor:middle;">3</text>
</g></g>
<!-- Edge:    32   36 -->
<line x1="768.62" y1="470.47" x2="687.97" y2="408.69" style="stroke-width:2.00;stroke:rgb(0,112,145)"/>
<g transform="translate(849.16 387.92)">
<g transform="rotate(257.72)">
<text x="0" y="0" style="font-family:Arial;font-size:15.00px;fill:rgb(0,0,0);text-anchor:middle;">2</text>
</g></g>
<!-- Edge:    34   37 -->
<line x1="868.41" y1="429.38" x2="849.44" y2="342.20" style="stroke-width:2.00;stroke:rgb(0,112,145)"/>
<g transform="translate(721.41 374.39)">
<g transform="rotate(122.22)">
<text x="0" y="0" style="font-family:Arial;font-size:15.00px;fill:rgb(0,0,0);text-anchor:middle;">3</text>
</g></g>
<!-- Edge:    35   36 -->
<line x1="737.92" y1="329.42" x2="687.97" y2="408.69" style="stroke-width:2.00;stroke:rgb(0,112,145)"/>
<g transform="translate(794.82 325.88)">
<g transform="rotate(6.54)">
<text x="0" y="0" style="font-family:Arial;font-size:15.00px;fill:rgb(0,0,0);text-anchor:middle;">2</text>
</g></g>
<!-- Edge:    35   37 -->
<line x1="737.92" y1="329.42" x2="849.44" y2="342.20" style="stroke-width:2.00;stroke:rgb(0,112,145)"/>
<g transform="translate(856.12 124.07)">
<g transform="rotate(265.85)">
<text x="0" y="0" style="font-family:Arial;font-size:15.00px;fill:rgb(0,0,0);text-anchor:middle;">4</text>
</g></g>
<!-- Edge:    38   39 -->
<line x1="868.76" y1="160.06" x2="863.43" y2="86.62" style="stroke-width:2.00;stroke:rgb(0,112,145)"/>
<g transform="translate(856.28 194.11)">
<g transform="rotate(126.15)">
<text x="0" y="0" style="font-family:Arial;font-size:15.00px;fill:rgb(0,0,0);text-anchor:middle;">2</text>
</g></g>
<!-- Edge:    38   41 -->
<line x1="868.76" y1="160.06" x2="827.64" y2="216.36" style="stroke-width:2.00;stroke:rgb(0,112,145)"/>
<g transform="translate(832.11 69.99)">
<g transform="rotate(224.35)">
<text x="0" y="0" style="font-family:Arial;font-size:15.00px;fill:rgb(0,0,0);text-anchor:middle;">2</text>
</g></g>
<!-- Edge:    39   42 -->
<line x1="863.43" y1="86.62" x2="814.76" y2="39.05" style="stroke-width:2.00;stroke:rgb(0,112,145)"/>
<g transform="translate(836.57 550.16)">
<g transform="rotate(127.10)">
<text x="0" y="0" style="font-family:Arial;font-size:15.00px;fill:rgb(0,0,0);text-anchor:middle;">2</text>
</g></g>
<!-- Edge:    40   47 -->
<line x1="868.28" y1="491.64" x2="788.90" y2="596.61" style="stroke-width:2.00;stroke:rgb(0,112,145)"/>
<g transform="translate(788.90 501.64)">
<g transform="rotate(180.00)">
<text x="0" y="0" style="font-family:Arial;font-size:15.00px;fill:rgb(0,0,0);text-anchor:middle;">2</text>
</g></g>
<!-- Edge:    40   48 -->
<line x1="868.28" y1="491.64" x2="709.51" y2="491.64" style="stroke-width:2.00;stroke:rgb(0,112,145)"/>
<g transform="translate(796.86 229.40)">
<g transform="rotate(174.44)">
<text x="0" y="0" style="font-family:Arial;font-size:15.00px;fill:rgb(0,0,0);text-anchor:middle;">1</text>
</g></g>
<!-- Edge:    41   46 -->
<line x1="827.64" y1="216.36" x2="764.15" y2="222.54" style="stroke-width:2.00;stroke:rgb(0,112,145)"/>
<g transform="translate(783.98 52.09)">
<g transform="rotate(174.46)">
<text x="0" y="0" style="font-family:Arial;font-size:15.00px;fill:rgb(0,0,0);text-anchor:middle;">2</text>
</g></g>
<!-- Edge:    42   43 -->
<line x1="814.76" y1="39.05" x2="751.27" y2="45.21" style="stroke-width:2.00;stroke:rgb(0,112,145)"/>
<g transform="translate(738.79 79.26)">
<g transform="rotate(126.15)">
<text x="0" y="0" style="font-family:Arial;font-size:15.00px;fill:rgb(0,0,0);text-anchor:middle;">1</text>
</g></g>
<!-- Edge:    43   44 -->
<line x1="751.27" y1="45.21" x2="710.15" y2="101.51" style="stroke-width:2.00;stroke:rgb(0,112,145)"/>
<g transform="translate(722.79 137.52)">
<g transform="rotate(85.85)">
<text x="0" y="0" style="font-family:Arial;font-size:15.00px;fill:rgb(0,0,0);text-anchor:middle;">3</text>
</g></g>
<!-- Edge:    44   45 -->
<line x1="710.15" y1="101.51" x2="715.48" y2="174.97" style="stroke-width:2.00;stroke:rgb(0,112,145)"/>
<g transform="translate(746.81 191.60)">
<g transform="rotate(44.35)">
<text x="0" y="0" style="font-family:Arial;font-size:15.00px;fill:rgb(0,0,0);text-anchor:middle;">2</text>
</g></g>
<!-- Edge:    45   46 -->
<line x1="715.48" y1="174.97" x2="764.15" y2="222.54" style="stroke-width:2.00;stroke:rgb(0,112,145)"/>
<g transform="translate(741.23 550.16)">
<g transform="rotate(232.90)">
<text x="0" y="0" style="font-family:Arial;font-size:15.00px;fill:rgb(0,0,0);text-anchor:middle;">3</text>
</g></g>
<!-- Edge:    47   48 -->
<line x1="788.90" y1="596.61" x2="709.51" y2="491.64" style="stroke-width:2.00;stroke:rgb(0,112,145)"/>
<g transform="translate(228.07 277.56)">
<g transform="rotate(-34.66)">
<text x="0" y="0" style="font-family:Arial;font-size:15.00px;fill:rgb(0,0,0);text-anchor:middle;">2</text>
</g></g>
<!-- Edge:    49   51 -->
<line x1="214.12" y1="299.35" x2="253.38" y2="272.21" style="stroke-width:2.00;stroke:rgb(0,112,145)"/>
<g transform="translate(193.15 313.18)">
<g transform="rotate(170.05)">
<text x="0" y="0" style="font-family:Arial;font-size:15.00px;fill:rgb(0,0,0);text-anchor:middle;">3</text>
</g></g>
<!-- Edge:    49   53 -->
<line x1="214.12" y1="299.35" x2="168.73" y2="307.31" style="stroke-width:2.00;stroke:rgb(0,112,145)"/>
<g transform="translate(275.37 256.53)">
<g transform="rotate(122.77)">
<text x="0" y="0" style="font-family:Arial;font-size:15.00px;fill:rgb(0,0,0);text-anchor:middle;">3</text>
</g></g>
<!-- Edge:    50   51 -->
<line x1="280.54" y1="230.02" x2="253.38" y2="272.21" style="stroke-width:2.00;stroke:rgb(0,112,145)"/>
<g transform="translate(276.22 202.51)">
<g transform="rotate(-77.88)">
<text x="0" y="0" style="font-family:Arial;font-size:15.00px;fill:rgb(0,0,0);text-anchor:middle;">4</text>
</g></g>
<!-- Edge:    50   52 -->
<line x1="280.54" y1="230.02" x2="291.46" y2="179.21" style="stroke-width:2.00;stroke:rgb(0,112,145)"/>
<g transform="translate(278.05 154.69)">
<g transform="rotate(262.30)">
<text x="0" y="0" style="font-family:Arial;font-size:15.00px;fill:rgb(0,0,0);text-anchor:middle;">5</text>
</g></g>
<!-- Edge:    52   54 -->
<line x1="291.46" y1="179.21" x2="284.47" y2="127.50" style="stroke-width:2.00;stroke:rgb(0,112,145)"/>
<g transform="translate(143.74 310.73)">
<g transform="rotate(195.57)">
<text x="0" y="0" style="font-family:Arial;font-size:15.00px;fill:rgb(0,0,0);text-anchor:middle;">3</text>
</g></g>
<!-- Edge:    53   56 -->
<line x1="168.73" y1="307.31" x2="124.12" y2="294.88" style="stroke-width:2.00;stroke:rgb(0,112,145)"/>
<g transform="translate(263.73 109.84)">
<g transform="rotate(241.95)">
<text x="0" y="0" style="font-family:Arial;font-size:15.00px;fill:rgb(0,0,0);text-anchor:middle;">3</text>
</g></g>
<!-- Edge:    54   55 -->
<line x1="284.47" y1="127.50" x2="260.64" y2="82.78" style="stroke-width:2.00;stroke:rgb(0,112,145)"/>
<g transform="translate(235.72 74.98)">
<g transform="rotate(219.87)">
<text x="0" y="0" style="font-family:Arial;font-size:15.00px;fill:rgb(0,0,0);text-anchor:middle;">2</text>
</g></g>
<!-- Edge:    55   59 -->
<line x1="260.64" y1="82.78" x2="223.61" y2="51.84" style="stroke-width:2.00;stroke:rgb(0,112,145)"/>
<g transform="translate(99.19 287.09)">
<g transform="rotate(219.87)">
<text x="0" y="0" style="font-family:Arial;font-size:15.00px;fill:rgb(0,0,0);text-anchor:middle;">4</text>
</g></g>
<!-- Edge:    56   57 -->
<line x1="124.12" y1="294.88" x2="87.08" y2="263.95" style="stroke-width:2.00;stroke:rgb(0,112,145)"/>
<g transform="translate(66.34 246.29)">
<g transform="rotate(241.95)">
<text x="0" y="0" style="font-family:Arial;font-size:15.00px;fill:rgb(0,0,0);text-anchor:middle;">7</text>
</g></g>
<!-- Edge:    57   58 -->
<line x1="87.08" y1="263.95" x2="63.25" y2="219.22" style="stroke-width:2.00;stroke:rgb(0,112,145)"/>
<g transform="translate(49.84 194.71)">
<g transform="rotate(262.30)">
<text x="0" y="0" style="font-family:Arial;font-size:15.00px;fill:rgb(0,0,0);text-anchor:middle;">3</text>
</g></g>
<!-- Edge:    58   64 -->
<line x1="63.25" y1="219.22" x2="56.26" y2="167.51" style="stroke-width:2.00;stroke:rgb(0,112,145)"/>
<g transform="translate(198.61 55.26)">
<g transform="rotate(195.57)">
<text x="0" y="0" style="font-family:Arial;font-size:15.00px;fill:rgb(0,0,0);text-anchor:middle;">1</text>
</g></g>
<!-- Edge:    59   60 -->
<line x1="223.61" y1="51.84" x2="178.99" y2="39.41" style="stroke-width:2.00;stroke:rgb(0,112,145)"/>
<g transform="translate(158.02 53.24)">
<g transform="rotate(170.06)">
<text x="0" y="0" style="font-family:Arial;font-size:15.00px;fill:rgb(0,0,0);text-anchor:middle;">1</text>
</g></g>
<!-- Edge:    60   62 -->
<line x1="178.99" y1="39.41" x2="133.60" y2="47.37" style="stroke-width:2.00;stroke:rgb(0,112,145)"/>
<g transform="translate(108.28 52.71)">
<g transform="rotate(-34.65)">
<text x="0" y="0" style="font-family:Arial;font-size:15.00px;fill:rgb(0,0,0);text-anchor:middle;">1</text>
</g></g>
<!-- Edge:    61   62 -->
<line x1="94.33" y1="74.51" x2="133.60" y2="47.37" style="stroke-width:2.00;stroke:rgb(0,112,145)"/>
<g transform="translate(89.16 101.01)">
<g transform="rotate(122.77)">
<text x="0" y="0" style="font-family:Arial;font-size:15.00px;fill:rgb(0,0,0);text-anchor:middle;">1</text>
</g></g>
<!-- Edge:    61   65 -->
<line x1="94.33" y1="74.51" x2="67.17" y2="116.70" style="stroke-width:2.00;stroke:rgb(0,112,145)"/>
<g transform="translate(977.66 501.64)">
<g transform="rotate(180.00)">
<text x="0" y="0" style="font-family:Arial;font-size:15.00px;fill:rgb(0,0,0);text-anchor:middle;">1</text>
</g></g>
<!-- Edge:    63   67 -->
<line x1="1057.04" y1="491.64" x2="898.27" y2="491.64" style="stroke-width:2.00;stroke:rgb(0,112,145)"/>
<g transform="translate(51.94 140.01)">
<g transform="rotate(-77.88)">
<text x="0" y="0" style="font-family:Arial;font-size:15.00px;fill:rgb(0,0,0);text-anchor:middle;">3</text>
</g></g>
<!-- Edge:    64   65 -->
<line x1="56.26" y1="167.51" x2="67.17" y2="116.70" style="stroke-width:2.00;stroke:rgb(0,112,145)"/>
<g transform="translate(929.99 550.16)">
<g transform="rotate(232.90)">
<text x="0" y="0" style="font-family:Arial;font-size:15.00px;fill:rgb(0,0,0);text-anchor:middle;">2</text>
</g></g>
<!-- Edge:    66   67 -->
<line x1="977.66" y1="596.61" x2="898.27" y2="491.64" style="stroke-width:2.00;stroke:rgb(0,112,145)"/>
<g transform="translate(655.11 378.74)">
<g transform="rotate(74.36)">
<text x="0" y="0" style="font-family:Arial;font-size:15.00px;fill:rgb(0,0,0);text-anchor:middle;">4</text>
</g></g>
<!-- Edge:    68   69 -->
<line x1="633.28" y1="337.86" x2="657.69" y2="425.02" style="stroke-width:2.00;stroke:rgb(0,112,145)"/>
<g transform="translate(576.76 343.61)">
<g transform="rotate(184.32)">
<text x="0" y="0" style="font-family:Arial;font-size:15.00px;fill:rgb(0,0,0);text-anchor:middle;">4</text>
</g></g>
<!-- Edge:    68   73 -->
<line x1="633.28" y1="337.86" x2="521.76" y2="329.43" style="stroke-width:2.00;stroke:rgb(0,112,145)"/>
<g transform="translate(613.73 456.79)">
<g transform="rotate(154.77)">
<text x="0" y="0" style="font-family:Arial;font-size:15.00px;fill:rgb(0,0,0);text-anchor:middle;">4</text>
</g></g>
<!-- Edge:    69   71 -->
<line x1="657.69" y1="425.02" x2="561.25" y2="470.46" style="stroke-width:2.00;stroke:rgb(0,112,145)"/>
<g transform="translate(525.00 432.74)">
<g transform="rotate(35.12)">
<text x="0" y="0" style="font-family:Arial;font-size:15.00px;fill:rgb(0,0,0);text-anchor:middle;">2</text>
</g></g>
<!-- Edge:    70   71 -->
<line x1="477.24" y1="411.38" x2="561.25" y2="470.46" style="stroke-width:2.00;stroke:rgb(0,112,145)"/>
<g transform="translate(490.71 365.63)">
<g transform="rotate(-61.49)">
<text x="0" y="0" style="font-family:Arial;font-size:15.00px;fill:rgb(0,0,0);text-anchor:middle;">3</text>
</g></g>
<!-- Edge:    70   73 -->
<line x1="477.24" y1="411.38" x2="521.76" y2="329.43" style="stroke-width:2.00;stroke:rgb(0,112,145)"/>
<g transform="translate(379.58 212.14)">
<g transform="rotate(27.25)">
<text x="0" y="0" style="font-family:Arial;font-size:15.00px;fill:rgb(0,0,0);text-anchor:middle;">1</text>
</g></g>
<!-- Edge:    72   75 -->
<line x1="348.00" y1="207.13" x2="402.00" y2="234.93" style="stroke-width:2.00;stroke:rgb(0,112,145)"/>
<g transform="translate(325.83 180.28)">
<g transform="rotate(247.14)">
<text x="0" y="0" style="font-family:Arial;font-size:15.00px;fill:rgb(0,0,0);text-anchor:middle;">3</text>
</g></g>
<!-- Edge:    72   79 -->
<line x1="348.00" y1="207.13" x2="322.09" y2="145.67" style="stroke-width:2.00;stroke:rgb(0,112,145)"/>
<g transform="translate(483.97 192.76)">
<g transform="rotate(120.23)">
<text x="0" y="0" style="font-family:Arial;font-size:15.00px;fill:rgb(0,0,0);text-anchor:middle;">4</text>
</g></g>
<!-- Edge:    74   77 -->
<line x1="491.86" y1="159.38" x2="458.81" y2="216.08" style="stroke-width:2.00;stroke:rgb(0,112,145)"/>
<g transform="translate(478.81 126.28)">
<g transform="rotate(264.80)">
<text x="0" y="0" style="font-family:Arial;font-size:15.00px;fill:rgb(0,0,0);text-anchor:middle;">3</text>
</g></g>
<!-- Edge:    74   78 -->
<line x1="491.86" y1="159.38" x2="485.67" y2="91.37" style="stroke-width:2.00;stroke:rgb(0,112,145)"/>
<g transform="translate(427.26 216.02)">
<g transform="rotate(-18.36)">
<text x="0" y="0" style="font-family:Arial;font-size:15.00px;fill:rgb(0,0,0);text-anchor:middle;">5</text>
</g></g>
<!-- Edge:    75   77 -->
<line x1="402.00" y1="234.93" x2="458.81" y2="216.08" style="stroke-width:2.00;stroke:rgb(0,112,145)"/>
<g transform="translate(494.08 696.83)">
<g transform="rotate(137.41)">
<text x="0" y="0" style="font-family:Arial;font-size:15.00px;fill:rgb(0,0,0);text-anchor:middle;">2</text>
</g></g>
<!-- Edge:    76   83 -->
<line x1="544.41" y1="636.98" x2="430.22" y2="741.95" style="stroke-width:2.00;stroke:rgb(0,112,145)"/>
<g transform="translate(430.22 646.98)">
<g transform="rotate(180.00)">
<text x="0" y="0" style="font-family:Arial;font-size:15.00px;fill:rgb(0,0,0);text-anchor:middle;">3</text>
</g></g>
<!-- Edge:    76   84 -->
<line x1="544.41" y1="636.98" x2="316.04" y2="636.98" style="stroke-width:2.00;stroke:rgb(0,112,145)"/>
<g transform="translate(456.96 74.30)">
<g transform="rotate(228.16)">
<text x="0" y="0" style="font-family:Arial;font-size:15.00px;fill:rgb(0,0,0);text-anchor:middle;">7</text>
</g></g>
<!-- Edge:    78   82 -->
<line x1="485.67" y1="91.37" x2="443.15" y2="43.88" style="stroke-width:2.00;stroke:rgb(0,112,145)"/>
<g transform="translate(319.46 110.39)">
<g transform="rotate(-77.84)">
<text x="0" y="0" style="font-family:Arial;font-size:15.00px;fill:rgb(0,0,0);text-anchor:middle;">4</text>
</g></g>
<!-- Edge:    79   80 -->
<line x1="322.09" y1="145.67" x2="336.38" y2="79.32" style="stroke-width:2.00;stroke:rgb(0,112,145)"/>
<g transform="translate(353.85 51.56)">
<g transform="rotate(-40.06)">
<text x="0" y="0" style="font-family:Arial;font-size:15.00px;fill:rgb(0,0,0);text-anchor:middle;">1</text>
</g></g>
<!-- Edge:    80   81 -->
<line x1="336.38" y1="79.32" x2="384.19" y2="39.12" style="stroke-width:2.00;stroke:rgb(0,112,145)"/>
<g transform="translate(414.48 31.53)">
<g transform="rotate(4.62)">
<text x="0" y="0" style="font-family:Arial;font-size:15.00px;fill:rgb(0,0,0);text-anchor:middle;">2</text>
</g></g>
<!-- Edge:    81   82 -->
<line x1="384.19" y1="39.12" x2="443.15" y2="43.88" style="stroke-width:2.00;stroke:rgb(0,112,145)"/>
<g transform="translate(366.36 696.83)">
<g transform="rotate(222.59)">
<text x="0" y="0" style="font-family:Arial;font-size:15.00px;fill:rgb(0,0,0);text-anchor:middle;">4</text>
</g></g>
<!-- Edge:    83   84 -->
<line x1="430.22" y1="741.95" x2="316.04" y2="636.98" style="stroke-width:2.00;stroke:rgb(0,112,145)"/>
<g transform="translate(367.59 563.86)">
<g transform="rotate(180.00)">
<text x="0" y="0" style="font-family:Arial;font-size:15.00px;fill:rgb(0,0,0);text-anchor:middle;">5</text>
</g></g>
<!-- Edge:    85   89 -->
<line x1="461.56" y1="553.86" x2="273.61" y2="553.86" style="stroke-width:2.00;stroke:rgb(0,112,145)"/>
<g transform="translate(409.05 531.07)">
<g transform="rotate(213.52)">
<text x="0" y="0" style="font-family:Arial;font-size:15.00px;fill:rgb(0,0,0);text-anchor:middle;">6</text>
</g></g>
<!-- Edge:    85   90 -->
<line x1="461.56" y1="553.86" x2="367.59" y2="491.60" style="stroke-width:2.00;stroke:rgb(0,112,145)"/>
<g transform="translate(315.07 593.33)">
<g transform="rotate(213.52)">
<text x="0" y="0" style="font-family:Arial;font-size:15.00px;fill:rgb(0,0,0);text-anchor:middle;">4</text>
</g></g>
<!-- Edge:    86   89 -->
<line x1="367.59" y1="616.12" x2="273.61" y2="553.86" style="stroke-width:2.00;stroke:rgb(0,112,145)"/>
<g transform="translate(357.59 553.86)">
<g transform="rotate(-90.00)">
<text x="0" y="0" style="font-family:Arial;font-size:15.00px;fill:rgb(0,0,0);text-anchor:middle;">3</text>
</g></g>
<!-- Edge:    86   90 -->
<line x1="367.59" y1="616.12" x2="367.59" y2="491.60" style="stroke-width:2.00;stroke:rgb(0,112,145)"/>
<g transform="translate(137.66 477.17)">
<g transform="rotate(183.37)">
<text x="0" y="0" style="font-family:Arial;font-size:15.00px;fill:rgb(0,0,0);text-anchor:middle;">1</text>
</g></g>
<!-- Edge:    87   91 -->
<line x1="194.00" y1="470.46" x2="82.48" y2="463.91" style="stroke-width:2.00;stroke:rgb(0,112,145)"/>
<g transform="translate(206.20 424.38)">
<g transform="rotate(-63.06)">
<text x="0" y="0" style="font-family:Arial;font-size:15.00px;fill:rgb(0,0,0);text-anchor:middle;">1</text>
</g></g>
<!-- Edge:    87   92 -->
<line x1="194.00" y1="470.46" x2="236.24" y2="387.35" style="stroke-width:2.00;stroke:rgb(0,112,145)"/>
<g transform="translate(78.70 417.40)">
<g transform="rotate(72.97)">
<text x="0" y="0" style="font-family:Arial;font-size:15.00px;fill:rgb(0,0,0);text-anchor:middle;">3</text>
</g></g>
<!-- Edge:    88   91 -->
<line x1="55.79" y1="376.74" x2="82.48" y2="463.91" style="stroke-width:2.00;stroke:rgb(0,112,145)"/>
<g transform="translate(98.84 344.13)">
<g transform="rotate(-26.47)">
<text x="0" y="0" style="font-family:Arial;font-size:15.00px;fill:rgb(0,0,0);text-anchor:middle;">3</text>
</g></g>
<!-- Edge:    88   95 -->
<line x1="55.79" y1="376.74" x2="150.81" y2="329.43" style="stroke-width:2.00;stroke:rgb(0,112,145)"/>
<g transform="translate(187.91 366.67)">
<g transform="rotate(214.14)">
<text x="0" y="0" style="font-family:Arial;font-size:15.00px;fill:rgb(0,0,0);text-anchor:middle;">3</text>
</g></g>
<!-- Edge:    92   95 -->
<line x1="236.24" y1="387.35" x2="150.81" y2="329.43" style="stroke-width:2.00;stroke:rgb(0,112,145)"/>
<g transform="translate(1023.73 430.37)">
<g transform="rotate(141.95)">
<text x="0" y="0" style="font-family:Arial;font-size:15.00px;fill:rgb(0,0,0);text-anchor:middle;">3</text>
</g></g>
<!-- Edge:    93   94 -->
<line x1="1057.35" y1="391.37" x2="977.79" y2="453.63" style="stroke-width:2.00;stroke:rgb(0,112,145)"/>
<g transform="translate(977.79 401.37)">
<g transform="rotate(180.00)">
<text x="0" y="0" style="font-family:Arial;font-size:15.00px;fill:rgb(0,0,0);text-anchor:middle;">4</text>
</g></g>
<!-- Edge:    93   96 -->
<line x1="1057.35" y1="391.37" x2="898.24" y2="391.37" style="stroke-width:2.00;stroke:rgb(0,112,145)"/>
<g transform="translate(967.79 391.37)">
<g transform="rotate(-90.00)">
<text x="0" y="0" style="font-family:Arial;font-size:15.00px;fill:rgb(0,0,0);text-anchor:middle;">2</text>
</g></g>
<!-- Edge:    94   99 -->
<line x1="977.79" y1="453.63" x2="977.79" y2="329.11" style="stroke-width:2.00;stroke:rgb(0,112,145)"/>
<g transform="translate(931.86 352.37)">
<g transform="rotate(-38.05)">
<text x="0" y="0" style="font-family:Arial;font-size:15.00px;fill:rgb(0,0,0);text-anchor:middle;">6</text>
</g></g>
<!-- Edge:    96   99 -->
<line x1="898.24" y1="391.37" x2="977.79" y2="329.11" style="stroke-width:2.00;stroke:rgb(0,112,145)"/>
<g transform="translate(666.11 667.91)">
<g transform="rotate(0.00)">
<text x="0" y="0" style="font-family:Arial;font-size:15.00px;fill:rgb(0,0,0);text-anchor:middle;">1</text>
</g></g>
<!-- Edge:    98  100 -->
<line x1="575.59" y1="677.91" x2="756.63" y2="677.91" style="stroke-width:2.00;stroke:rgb(0,112,145)"/>

<!-- Vertex:     1 -->
<ellipse cx="271.88" cy="447.37" rx="10.00" ry="10.00" style="fill:rgb(255,217,188);stroke:rgb(102,0,0);stroke-width:0.50;"/>
<!-- Vertex:     2 -->
<ellipse cx="383.38" cy="470.47" rx="10.00" ry="10.00" style="fill:rgb(255,217,188);stroke:rgb(102,0,0);stroke-width:0.50;"/>
<!-- Vertex:     3 -->
<ellipse cx="446.95" cy="397.57" rx="10.00" ry="10.00" style="fill:rgb(255,217,188);stroke:rgb(102,0,0);stroke-width:0.50;"/>
<!-- Vertex:     4 -->
<ellipse cx="374.73" cy="329.42" rx="10.00" ry="10.00" style="fill:rgb(255,217,188);stroke:rgb(102,0,0);stroke-width:0.50;"/>
<!-- Vertex:     5 -->
<ellipse cx="266.53" cy="360.20" rx="10.00" ry="10.00" style="fill:rgb(255,217,188);stroke:rgb(102,0,0);stroke-width:0.50;"/>
<!-- Vertex:     6 -->
<ellipse cx="547.77" cy="62.70" rx="10.00" ry="10.00" style="fill:rgb(255,217,188);stroke:rgb(102,0,0);stroke-width:0.50;"/>
<!-- Vertex:     7 -->
<ellipse cx="679.52" cy="553.86" rx="10.00" ry="10.00" style="fill:rgb(255,217,188);stroke:rgb(102,0,0);stroke-width:0.50;"/>
<!-- Vertex:     8 -->
<ellipse cx="605.00" cy="39.05" rx="10.00" ry="10.00" style="fill:rgb(255,217,188);stroke:rgb(102,0,0);stroke-width:0.50;"/>
<!-- Vertex:     9 -->
<ellipse cx="659.93" cy="69.14" rx="10.00" ry="10.00" style="fill:rgb(255,217,188);stroke:rgb(102,0,0);stroke-width:0.50;"/>
<!-- Vertex:    10 -->
<ellipse cx="585.54" cy="616.12" rx="10.00" ry="10.00" style="fill:rgb(255,217,188);stroke:rgb(102,0,0);stroke-width:0.50;"/>
<!-- Vertex:    11 -->
<ellipse cx="680.38" cy="135.34" rx="10.00" ry="10.00" style="fill:rgb(255,217,188);stroke:rgb(102,0,0);stroke-width:0.50;"/>
<!-- Vertex:    12 -->
<ellipse cx="491.57" cy="553.86" rx="10.00" ry="10.00" style="fill:rgb(255,217,188);stroke:rgb(102,0,0);stroke-width:0.50;"/>
<!-- Vertex:    13 -->
<ellipse cx="585.54" cy="491.60" rx="10.00" ry="10.00" style="fill:rgb(255,217,188);stroke:rgb(102,0,0);stroke-width:0.50;"/>
<!-- Vertex:    14 -->
<ellipse cx="654.37" cy="198.88" rx="10.00" ry="10.00" style="fill:rgb(255,217,188);stroke:rgb(102,0,0);stroke-width:0.50;"/>
<!-- Vertex:    15 -->
<ellipse cx="521.77" cy="126.24" rx="10.00" ry="10.00" style="fill:rgb(255,217,188);stroke:rgb(102,0,0);stroke-width:0.50;"/>
<!-- Vertex:    16 -->
<ellipse cx="542.21" cy="192.45" rx="10.00" ry="10.00" style="fill:rgb(255,217,188);stroke:rgb(102,0,0);stroke-width:0.50;"/>
<!-- Vertex:    17 -->
<ellipse cx="597.14" cy="222.54" rx="10.00" ry="10.00" style="fill:rgb(255,217,188);stroke:rgb(102,0,0);stroke-width:0.50;"/>
<!-- Vertex:    18 -->
<ellipse cx="243.60" cy="553.86" rx="10.00" ry="10.00" style="fill:rgb(255,217,188);stroke:rgb(102,0,0);stroke-width:0.50;"/>
<!-- Vertex:    19 -->
<ellipse cx="149.63" cy="616.12" rx="10.00" ry="10.00" style="fill:rgb(255,217,188);stroke:rgb(102,0,0);stroke-width:0.50;"/>
<!-- Vertex:    20 -->
<ellipse cx="55.65" cy="553.86" rx="10.00" ry="10.00" style="fill:rgb(255,217,188);stroke:rgb(102,0,0);stroke-width:0.50;"/>
<!-- Vertex:    21 -->
<ellipse cx="284.69" cy="636.98" rx="10.00" ry="10.00" style="fill:rgb(255,217,188);stroke:rgb(102,0,0);stroke-width:0.50;"/>
<!-- Vertex:    22 -->
<ellipse cx="149.63" cy="491.60" rx="10.00" ry="10.00" style="fill:rgb(255,217,188);stroke:rgb(102,0,0);stroke-width:0.50;"/>
<!-- Vertex:    23 -->
<ellipse cx="951.89" cy="222.54" rx="10.00" ry="10.00" style="fill:rgb(255,217,188);stroke:rgb(102,0,0);stroke-width:0.50;"/>
<!-- Vertex:    24 -->
<ellipse cx="170.51" cy="741.95" rx="10.00" ry="10.00" style="fill:rgb(255,217,188);stroke:rgb(102,0,0);stroke-width:0.50;"/>
<!-- Vertex:    25 -->
<ellipse cx="56.32" cy="636.98" rx="10.00" ry="10.00" style="fill:rgb(255,217,188);stroke:rgb(102,0,0);stroke-width:0.50;"/>
<!-- Vertex:    26 -->
<ellipse cx="898.54" cy="100.76" rx="10.00" ry="10.00" style="fill:rgb(255,217,188);stroke:rgb(102,0,0);stroke-width:0.50;"/>
<!-- Vertex:    27 -->
<ellipse cx="1057.15" cy="160.82" rx="10.00" ry="10.00" style="fill:rgb(255,217,188);stroke:rgb(102,0,0);stroke-width:0.50;"/>
<!-- Vertex:    28 -->
<ellipse cx="903.41" cy="174.43" rx="10.00" ry="10.00" style="fill:rgb(255,217,188);stroke:rgb(102,0,0);stroke-width:0.50;"/>
<!-- Vertex:    29 -->
<ellipse cx="1003.81" cy="39.05" rx="10.00" ry="10.00" style="fill:rgb(255,217,188);stroke:rgb(102,0,0);stroke-width:0.50;"/>
<!-- Vertex:    30 -->
<ellipse cx="1015.57" cy="216.90" rx="10.00" ry="10.00" style="fill:rgb(255,217,188);stroke:rgb(102,0,0);stroke-width:0.50;"/>
<!-- Vertex:    31 -->
<ellipse cx="940.12" cy="44.69" rx="10.00" ry="10.00" style="fill:rgb(255,217,188);stroke:rgb(102,0,0);stroke-width:0.50;"/>
<!-- Vertex:    32 -->
<ellipse cx="768.62" cy="470.47" rx="10.00" ry="10.00" style="fill:rgb(255,217,188);stroke:rgb(102,0,0);stroke-width:0.50;"/>
<!-- Vertex:    33 -->
<ellipse cx="1052.28" cy="87.16" rx="10.00" ry="10.00" style="fill:rgb(255,217,188);stroke:rgb(102,0,0);stroke-width:0.50;"/>
<!-- Vertex:    34 -->
<ellipse cx="868.41" cy="429.38" rx="10.00" ry="10.00" style="fill:rgb(255,217,188);stroke:rgb(102,0,0);stroke-width:0.50;"/>
<!-- Vertex:    35 -->
<ellipse cx="737.92" cy="329.42" rx="10.00" ry="10.00" style="fill:rgb(255,217,188);stroke:rgb(102,0,0);stroke-width:0.50;"/>
<!-- Vertex:    36 -->
<ellipse cx="687.97" cy="408.69" rx="10.00" ry="10.00" style="fill:rgb(255,217,188);stroke:rgb(102,0,0);stroke-width:0.50;"/>
<!-- Vertex:    37 -->
<ellipse cx="849.44" cy="342.20" rx="10.00" ry="10.00" style="fill:rgb(255,217,188);stroke:rgb(102,0,0);stroke-width:0.50;"/>
<!-- Vertex:    38 -->
<ellipse cx="868.76" cy="160.06" rx="10.00" ry="10.00" style="fill:rgb(255,217,188);stroke:rgb(102,0,0);stroke-width:0.50;"/>
<!-- Vertex:    39 -->
<ellipse cx="863.43" cy="86.62" rx="10.00" ry="10.00" style="fill:rgb(255,217,188);stroke:rgb(102,0,0);stroke-width:0.50;"/>
<!-- Vertex:    40 -->
<ellipse cx="868.28" cy="491.64" rx="10.00" ry="10.00" style="fill:rgb(255,217,188);stroke:rgb(102,0,0);stroke-width:0.50;"/>
<!-- Vertex:    41 -->
<ellipse cx="827.64" cy="216.36" rx="10.00" ry="10.00" style="fill:rgb(255,217,188);stroke:rgb(102,0,0);stroke-width:0.50;"/>
<!-- Vertex:    42 -->
<ellipse cx="814.76" cy="39.05" rx="10.00" ry="10.00" style="fill:rgb(255,217,188);stroke:rgb(102,0,0);stroke-width:0.50;"/>
<!-- Vertex:    43 -->
<ellipse cx="751.27" cy="45.21" rx="10.00" ry="10.00" style="fill:rgb(255,217,188);stroke:rgb(102,0,0);stroke-width:0.50;"/>
<!-- Vertex:    44 -->
<ellipse cx="710.15" cy="101.51" rx="10.00" ry="10.00" style="fill:rgb(255,217,188);stroke:rgb(102,0,0);stroke-width:0.50;"/>
<!-- Vertex:    45 -->
<ellipse cx="715.48" cy="174.97" rx="10.00" ry="10.00" style="fill:rgb(255,217,188);stroke:rgb(102,0,0);stroke-width:0.50;"/>
<!-- Vertex:    46 -->
<ellipse cx="764.15" cy="222.54" rx="10.00" ry="10.00" style="fill:rgb(255,217,188);stroke:rgb(102,0,0);stroke-width:0.50;"/>
<!-- Vertex:    47 -->
<ellipse cx="788.90" cy="596.61" rx="10.00" ry="10.00" style="fill:rgb(255,217,188);stroke:rgb(102,0,0);stroke-width:0.50;"/>
<!-- Vertex:    48 -->
<ellipse cx="709.51" cy="491.64" rx="10.00" ry="10.00" style="fill:rgb(255,217,188);stroke:rgb(102,0,0);stroke-width:0.50;"/>
<!-- Vertex:    49 -->
<ellipse cx="214.12" cy="299.35" rx="10.00" ry="10.00" style="fill:rgb(255,217,188);stroke:rgb(102,0,0);stroke-width:0.50;"/>
<!-- Vertex:    50 -->
<ellipse cx="280.54" cy="230.02" rx="10.00" ry="10.00" style="fill:rgb(255,217,188);stroke:rgb(102,0,0);stroke-width:0.50;"/>
<!-- Vertex:    51 -->
<ellipse cx="253.38" cy="272.21" rx="10.00" ry="10.00" style="fill:rgb(255,217,188);stroke:rgb(102,0,0);stroke-width:0.50;"/>
<!-- Vertex:    52 -->
<ellipse cx="291.46" cy="179.21" rx="10.00" ry="10.00" style="fill:rgb(255,217,188);stroke:rgb(102,0,0);stroke-width:0.50;"/>
<!-- Vertex:    53 -->
<ellipse cx="168.73" cy="307.31" rx="10.00" ry="10.00" style="fill:rgb(255,217,188);stroke:rgb(102,0,0);stroke-width:0.50;"/>
<!-- Vertex:    54 -->
<ellipse cx="284.47" cy="127.50" rx="10.00" ry="10.00" style="fill:rgb(255,217,188);stroke:rgb(102,0,0);stroke-width:0.50;"/>
<!-- Vertex:    55 -->
<ellipse cx="260.64" cy="82.78" rx="10.00" ry="10.00" style="fill:rgb(255,217,188);stroke:rgb(102,0,0);stroke-width:0.50;"/>
<!-- Vertex:    56 -->
<ellipse cx="124.12" cy="294.88" rx="10.00" ry="10.00" style="fill:rgb(255,217,188);stroke:rgb(102,0,0);stroke-width:0.50;"/>
<!-- Vertex:    57 -->
<ellipse cx="87.08" cy="263.95" rx="10.00" ry="10.00" style="fill:rgb(255,217,188);stroke:rgb(102,0,0);stroke-width:0.50;"/>
<!-- Vertex:    58 -->
<ellipse cx="63.25" cy="219.22" rx="10.00" ry="10.00" style="fill:rgb(255,217,188);stroke:rgb(102,0,0);stroke-width:0.50;"/>
<!-- Vertex:    59 -->
<ellipse cx="223.61" cy="51.84" rx="10.00" ry="10.00" style="fill:rgb(255,217,188);stroke:rgb(102,0,0);stroke-width:0.50;"/>
<!-- Vertex:    60 -->
<ellipse cx="178.99" cy="39.41" rx="10.00" ry="10.00" style="fill:rgb(255,217,188);stroke:rgb(102,0,0);stroke-width:0.50;"/>
<!-- Vertex:    61 -->
<ellipse cx="94.33" cy="74.51" rx="10.00" ry="10.00" style="fill:rgb(255,217,188);stroke:rgb(102,0,0);stroke-width:0.50;"/>
<!-- Vertex:    62 -->
<ellipse cx="133.60" cy="47.37" rx="10.00" ry="10.00" style="fill:rgb(255,217,188);stroke:rgb(102,0,0);stroke-width:0.50;"/>
<!-- Vertex:    63 -->
<ellipse cx="1057.04" cy="491.64" rx="10.00" ry="10.00" style="fill:rgb(255,217,188);stroke:rgb(102,0,0);stroke-width:0.50;"/>
<!-- Vertex:    64 -->
<ellipse cx="56.26" cy="167.51" rx="10.00" ry="10.00" style="fill:rgb(255,217,188);stroke:rgb(102,0,0);stroke-width:0.50;"/>
<!-- Vertex:    65 -->
<ellipse cx="67.17" cy="116.70" rx="10.00" ry="10.00" style="fill:rgb(255,217,188);stroke:rgb(102,0,0);stroke-width:0.50;"/>
<!-- Vertex:    66 -->
<ellipse cx="977.66" cy="596.61" rx="10.00" ry="10.00" style="fill:rgb(255,217,188);stroke:rgb(102,0,0);stroke-width:0.50;"/>
<!-- Vertex:    67 -->
<ellipse cx="898.27" cy="491.64" rx="10.00" ry="10.00" style="fill:rgb(255,217,188);stroke:rgb(102,0,0);stroke-width:0.50;"/>
<!-- Vertex:    68 -->
<ellipse cx="633.28" cy="337.86" rx="10.00" ry="10.00" style="fill:rgb(255,217,188);stroke:rgb(102,0,0);stroke-width:0.50;"/>
<!-- Vertex:    69 -->
<ellipse cx="657.69" cy="425.02" rx="10.00" ry="10.00" style="fill:rgb(255,217,188);stroke:rgb(102,0,0);stroke-width:0.50;"/>
<!-- Vertex:    70 -->
<ellipse cx="477.24" cy="411.38" rx="10.00" ry="10.00" style="fill:rgb(255,217,188);stroke:rgb(102,0,0);stroke-width:0.50;"/>
<!-- Vertex:    71 -->
<ellipse cx="561.25" cy="470.46" rx="10.00" ry="10.00" style="fill:rgb(255,217,188);stroke:rgb(102,0,0);stroke-width:0.50;"/>
<!-- Vertex:    72 -->
<ellipse cx="348.00" cy="207.13" rx="10.00" ry="10.00" style="fill:rgb(255,217,188);stroke:rgb(102,0,0);stroke-width:0.50;"/>
<!-- Vertex:    73 -->
<ellipse cx="521.76" cy="329.43" rx="10.00" ry="10.00" style="fill:rgb(255,217,188);stroke:rgb(102,0,0);stroke-width:0.50;"/>
<!-- Vertex:    74 -->
<ellipse cx="491.86" cy="159.38" rx="10.00" ry="10.00" style="fill:rgb(255,217,188);stroke:rgb(102,0,0);stroke-width:0.50;"/>
<!-- Vertex:    75 -->
<ellipse cx="402.00" cy="234.93" rx="10.00" ry="10.00" style="fill:rgb(255,217,188);stroke:rgb(102,0,0);stroke-width:0.50;"/>
<!-- Vertex:    76 -->
<ellipse cx="544.41" cy="636.98" rx="10.00" ry="10.00" style="fill:rgb(255,217,188);stroke:rgb(102,0,0);stroke-width:0.50;"/>
<!-- Vertex:    77 -->
<ellipse cx="458.81" cy="216.08" rx="10.00" ry="10.00" style="fill:rgb(255,217,188);stroke:rgb(102,0,0);stroke-width:0.50;"/>
<!-- Vertex:    78 -->
<ellipse cx="485.67" cy="91.37" rx="10.00" ry="10.00" style="fill:rgb(255,217,188);stroke:rgb(102,0,0);stroke-width:0.50;"/>
<!-- Vertex:    79 -->
<ellipse cx="322.09" cy="145.67" rx="10.00" ry="10.00" style="fill:rgb(255,217,188);stroke:rgb(102,0,0);stroke-width:0.50;"/>
<!-- Vertex:    80 -->
<ellipse cx="336.38" cy="79.32" rx="10.00" ry="10.00" style="fill:rgb(255,217,188);stroke:rgb(102,0,0);stroke-width:0.50;"/>
<!-- Vertex:    81 -->
<ellipse cx="384.19" cy="39.12" rx="10.00" ry="10.00" style="fill:rgb(255,217,188);stroke:rgb(102,0,0);stroke-width:0.50;"/>
<!-- Vertex:    82 -->
<ellipse cx="443.15" cy="43.88" rx="10.00" ry="10.00" style="fill:rgb(255,217,188);stroke:rgb(102,0,0);stroke-width:0.50;"/>
<!-- Vertex:    83 -->
<ellipse cx="430.22" cy="741.95" rx="10.00" ry="10.00" style="fill:rgb(255,217,188);stroke:rgb(102,0,0);stroke-width:0.50;"/>
<!-- Vertex:    84 -->
<ellipse cx="316.04" cy="636.98" rx="10.00" ry="10.00" style="fill:rgb(255,217,188);stroke:rgb(102,0,0);stroke-width:0.50;"/>
<!-- Vertex:    85 -->
<ellipse cx="461.56" cy="553.86" rx="10.00" ry="10.00" style="fill:rgb(255,217,188);stroke:rgb(102,0,0);stroke-width:0.50;"/>
<!-- Vertex:    86 -->
<ellipse cx="367.59" cy="616.12" rx="10.00" ry="10.00" style="fill:rgb(255,217,188);stroke:rgb(102,0,0);stroke-width:0.50;"/>
<!-- Vertex:    87 -->
<ellipse cx="194.00" cy="470.46" rx="10.00" ry="10.00" style="fill:rgb(255,217,188);stroke:rgb(102,0,0);stroke-width:0.50;"/>
<!-- Vertex:    88 -->
<ellipse cx="55.79" cy="376.74" rx="10.00" ry="10.00" style="fill:rgb(255,217,188);stroke:rgb(102,0,0);stroke-width:0.50;"/>
<!-- Vertex:    89 -->
<ellipse cx="273.61" cy="553.86" rx="10.00" ry="10.00" style="fill:rgb(255,217,188);stroke:rgb(102,0,0);stroke-width:0.50;"/>
<!-- Vertex:    90 -->
<ellipse cx="367.59" cy="491.60" rx="10.00" ry="10.00" style="fill:rgb(255,217,188);stroke:rgb(102,0,0);stroke-width:0.50;"/>
<!-- Vertex:    91 -->
<ellipse cx="82.48" cy="463.91" rx="10.00" ry="10.00" style="fill:rgb(255,217,188);stroke:rgb(102,0,0);stroke-width:0.50;"/>
<!-- Vertex:    92 -->
<ellipse cx="236.24" cy="387.35" rx="10.00" ry="10.00" style="fill:rgb(255,217,188);stroke:rgb(102,0,0);stroke-width:0.50;"/>
<!-- Vertex:    93 -->
<ellipse cx="1057.35" cy="391.37" rx="10.00" ry="10.00" style="fill:rgb(255,217,188);stroke:rgb(102,0,0);stroke-width:0.50;"/>
<!-- Vertex:    94 -->
<ellipse cx="977.79" cy="453.63" rx="10.00" ry="10.00" style="fill:rgb(255,217,188);stroke:rgb(102,0,0);stroke-width:0.50;"/>
<!-- Vertex:    95 -->
<ellipse cx="150.81" cy="329.43" rx="10.00" ry="10.00" style="fill:rgb(255,217,188);stroke:rgb(102,0,0);stroke-width:0.50;"/>
<!-- Vertex:    96 -->
<ellipse cx="898.24" cy="391.37" rx="10.00" ry="10.00" style="fill:rgb(255,217,188);stroke:rgb(102,0,0);stroke-width:0.50;"/>
<!-- Vertex:    97 -->
<ellipse cx="847.11" cy="662.86" rx="10.00" ry="10.00" style="fill:rgb(255,217,188);stroke:rgb(102,0,0);stroke-width:0.50;"/>
<!-- Vertex:    98 -->
<ellipse cx="575.59" cy="677.91" rx="10.00" ry="10.00" style="fill:rgb(255,217,188);stroke:rgb(102,0,0);stroke-width:0.50;"/>
<!-- Vertex:    99 -->
<ellipse cx="977.79" cy="329.11" rx="10.00" ry="10.00" style="fill:rgb(255,217,188);stroke:rgb(102,0,0);stroke-width:0.50;"/>
<!-- Vertex:   100 -->
<ellipse cx="756.63" cy="677.91" rx="10.00" ry="10.00" style="fill:rgb(255,217,188);stroke:rgb(102,0,0);stroke-width:0.50;"/>
</g>         <!-- Layer Network -->
</svg>
