<?xml version="1.0" encoding="UTF-8"?>
<!-- Title: 3. Y:\OneDrive - Monash University\Year 2\Semester 2\FIT2082\Simulation\NetworkSimilaritySimulation\network.net (100) -->
<!-- Creator: Pajek 5.13: http://mrvar.fdv.uni-lj.si/pajek -->
<!-- CreationDate: 08-26-2021, 8:38:52 -->
<svg xml:space="preserve" viewBox="0 0 1113 781" xmlns="http://www.w3.org/2000/svg" xmlns:xlink="http://www.w3.org/1999/xlink" xmlns:inkscape="http://www.inkscape.org/namespaces/inkscape">
<title>3. Y:\OneDrive - Monash University\Year 2\Semester 2\FIT2082\Simulation\NetworkSimilaritySimulation\network.net (100)</title>
<g inkscape:groupmode="layer" id="PajekSig" inkscape:label="PajekSignature">
<g transform="translate(3 763)">
<g transform="scale(0.1)">
<g transform="matrix(1 0 0 -1 0 96)">
<path d="M   7.67  49.98 L  31.76  72.76 L  46.91  78.63
         L  57.23  80.49 M  72.86  65.23 L  65.73  83.25
         L  57.06  75.49 L  56.75  68.65 M  76.27  68.03
         L  75.65  84.50 L  93.92  91.02 L 107.24  74.87
         M  80.29  67.72 L  89.28  84.81 L 104.77  81.70
         L 116.23  73.31 L 121.18  59.33 M  56.75  81.08
         L  71.31  64.30"
         style="fill:none; stroke:saddlebrown; stroke-width:5;"/>
<path d="M  86.18  70.21 L  91.45  73.00 L  95.78  69.58
         M  91.14  60.88 L  96.09  62.75 L  98.26  59.33"
         style="fill:none; stroke:saddlebrown; stroke-width:1.5;"/>
<path d="M  81.07  49.08 L  87.81  49.08 L  93.30  54.38
         L  93.30  60.88 L  93.30  67.39 L  87.81  72.69
         L  81.07  72.69 L  74.33  72.69 L  68.83  67.39
         L  68.83  60.88 L  68.83  54.38 L  74.33  49.08
         L  81.07  49.08 z"
         style="fill:maroon; stroke:saddlebrown; stroke-width:1;"/>
<path d="M  54.63  37.53 L  68.53  43.56 L  75.39  55.85
         L  69.90  65.35 L  64.41  72.86 L  48.60  74.06
         L  34.71  68.04 L  20.81  55.02 L  15.95  40.72
         L  17.44  33.22 L  24.92  28.72 L  40.73  30.51
         L  54.63  37.53 z"
         style="fill:maroon; stroke:saddlebrown; stroke-width:1;" />
<path d="M  77.82  50.63 L 103.84  59.33 L 131.10  43.80
         L 139.46  27.95 L 139.15  15.83 M  35.99   5.27
         L  47.15  32.92 L  61.71  50.01 L  70.07  46.90
         L  82.77  45.04 L  83.39  27.02 L  65.42  12.11
         M  68.52  50.63 L  91.14  49.39 L 103.53  43.17
         L 117.16  22.67 L 115.30   8.38"
         style="fill:none; stroke:saddlebrown; stroke-width:5;"/>
<path d="M  41.57  54.98 L  60.16  64.61 M  52.41  66.17
         L  57.99  57.47"
         style="fill:none; stroke:white; stroke-width:5;"/>
</g>
</g>
<animateMotion dur="20s" path="M3 0 L1095 0" begin="120s" fill="freeze"/>
</g>
<g transform="translate(3 763)">
<g transform="scale(0.1)">
<text x="5" y="140" style="font-family:Brush Script MT;font-size:75px;fill:green;">Pajek</text>
</g>
<animateMotion dur="0.1s" path="M3 0 L1095 0" begin="120s" fill="freeze"/>
</g>
</g>      <!-- Layer Signature -->

<g inkscape:groupmode="layer" id="PajekNet" inkscape:label="PajekNetwork">

<g transform="translate(508.52 152.59)">
<g transform="rotate(-54.98)">
<text x="0" y="0" style="font-family:Arial;font-size:15.00px;fill:rgb(0,0,0);text-anchor:middle;">5</text>
</g></g>
<!-- Edge:     2   10 -->
<line x1="499.59" y1="182.76" x2="533.84" y2="133.89" style="stroke-width:2.00;stroke:rgb(0,112,145)"/>
<g transform="translate(455.34 60.57)">
<g transform="rotate(-90.00)">
<text x="0" y="0" style="font-family:Arial;font-size:15.00px;fill:rgb(0,0,0);text-anchor:middle;">5</text>
</g></g>
<!-- Edge:     6    8 -->
<line x1="465.34" y1="81.82" x2="465.34" y2="39.32" style="stroke-width:2.00;stroke:rgb(0,112,145)"/>
<g transform="translate(486.86 72.38)">
<g transform="rotate(1.49)">
<text x="0" y="0" style="font-family:Arial;font-size:15.00px;fill:rgb(0,0,0);text-anchor:middle;">6</text>
</g></g>
<!-- Edge:     6    9 -->
<line x1="465.34" y1="81.82" x2="507.85" y2="82.92" style="stroke-width:2.00;stroke:rgb(0,112,145)"/>
<g transform="translate(529.75 103.86)">
<g transform="rotate(62.98)">
<text x="0" y="0" style="font-family:Arial;font-size:15.00px;fill:rgb(0,0,0);text-anchor:middle;">6</text>
</g></g>
<!-- Edge:     9   10 -->
<line x1="507.85" y1="82.92" x2="533.84" y2="133.89" style="stroke-width:2.00;stroke:rgb(0,112,145)"/>
<g transform="translate(526.44 55.31)">
<g transform="rotate(-38.57)">
<text x="0" y="0" style="font-family:Arial;font-size:15.00px;fill:rgb(0,0,0);text-anchor:middle;">5</text>
</g></g>
<!-- Edge:     9   12 -->
<line x1="507.85" y1="82.92" x2="557.50" y2="43.34" style="stroke-width:2.00;stroke:rgb(0,112,145)"/>
<g transform="translate(607.51 76.17)">
<g transform="rotate(-8.93)">
<text x="0" y="0" style="font-family:Arial;font-size:15.00px;fill:rgb(0,0,0);text-anchor:middle;">5</text>
</g></g>
<!-- Edge:    24   27 -->
<line x1="584.78" y1="89.87" x2="633.34" y2="82.23" style="stroke-width:2.00;stroke:rgb(0,112,145)"/>
<g transform="translate(595.99 116.74)">
<g transform="rotate(87.44)">
<text x="0" y="0" style="font-family:Arial;font-size:15.00px;fill:rgb(0,0,0);text-anchor:middle;">5</text>
</g></g>
<!-- Edge:    24   29 -->
<line x1="584.78" y1="89.87" x2="587.22" y2="144.51" style="stroke-width:2.00;stroke:rgb(0,112,145)"/>
<g transform="translate(618.32 119.32)">
<g transform="rotate(126.52)">
<text x="0" y="0" style="font-family:Arial;font-size:15.00px;fill:rgb(0,0,0);text-anchor:middle;">5</text>
</g></g>
<!-- Edge:    27   29 -->
<line x1="633.34" y1="82.23" x2="587.22" y2="144.51" style="stroke-width:2.00;stroke:rgb(0,112,145)"/>
<g transform="translate(608.98 138.99)">
<g transform="rotate(12.21)">
<text x="0" y="0" style="font-family:Arial;font-size:15.00px;fill:rgb(0,0,0);text-anchor:middle;">5</text>
</g></g>
<!-- Edge:    29   30 -->
<line x1="587.22" y1="144.51" x2="626.50" y2="153.01" style="stroke-width:2.00;stroke:rgb(0,112,145)"/>
<g transform="translate(271.85 34.98)">
<g transform="rotate(-6.31)">
<text x="0" y="0" style="font-family:Arial;font-size:15.00px;fill:rgb(0,0,0);text-anchor:middle;">5</text>
</g></g>
<!-- Edge:    31   32 -->
<line x1="246.77" y1="47.82" x2="299.13" y2="42.03" style="stroke-width:2.00;stroke:rgb(0,112,145)"/>
<g transform="translate(295.84 92.53)">
<g transform="rotate(51.00)">
<text x="0" y="0" style="font-family:Arial;font-size:15.00px;fill:rgb(0,0,0);text-anchor:middle;">5</text>
</g></g>
<!-- Edge:    31   34 -->
<line x1="246.77" y1="47.82" x2="329.37" y2="149.82" style="stroke-width:2.00;stroke:rgb(0,112,145)"/>
<g transform="translate(323.88 93.23)">
<g transform="rotate(74.33)">
<text x="0" y="0" style="font-family:Arial;font-size:15.00px;fill:rgb(0,0,0);text-anchor:middle;">5</text>
</g></g>
<!-- Edge:    32   34 -->
<line x1="299.13" y1="42.03" x2="329.37" y2="149.82" style="stroke-width:2.00;stroke:rgb(0,112,145)"/>
<g transform="translate(379.76 151.26)">
<g transform="rotate(13.07)">
<text x="0" y="0" style="font-family:Arial;font-size:15.00px;fill:rgb(0,0,0);text-anchor:middle;">5</text>
</g></g>
<!-- Edge:    34   51 -->
<line x1="329.37" y1="149.82" x2="425.62" y2="172.18" style="stroke-width:2.00;stroke:rgb(0,112,145)"/>
<g transform="translate(402.83 141.46)">
<g transform="rotate(38.26)">
<text x="0" y="0" style="font-family:Arial;font-size:15.00px;fill:rgb(0,0,0);text-anchor:middle;">5</text>
</g></g>
<!-- Edge:    42   51 -->
<line x1="367.64" y1="126.45" x2="425.62" y2="172.18" style="stroke-width:2.00;stroke:rgb(0,112,145)"/>
<g transform="translate(425.87 137.47)">
<g transform="rotate(73.66)">
<text x="0" y="0" style="font-family:Arial;font-size:15.00px;fill:rgb(0,0,0);text-anchor:middle;">5</text>
</g></g>
<!-- Edge:    44   51 -->
<line x1="406.92" y1="108.38" x2="425.62" y2="172.18" style="stroke-width:2.00;stroke:rgb(0,112,145)"/>
<g transform="translate(901.50 85.59)">
<g transform="rotate(108.34)">
<text x="0" y="0" style="font-family:Arial;font-size:15.00px;fill:rgb(0,0,0);text-anchor:middle;">5</text>
</g></g>
<!-- Edge:    49   57 -->
<line x1="906.01" y1="40.22" x2="878.01" y2="124.67" style="stroke-width:2.00;stroke:rgb(0,112,145)"/>
<g transform="translate(390.13 191.92)">
<g transform="rotate(165.17)">
<text x="0" y="0" style="font-family:Arial;font-size:15.00px;fill:rgb(0,0,0);text-anchor:middle;">5</text>
</g></g>
<!-- Edge:    51   55 -->
<line x1="425.62" y1="172.18" x2="349.51" y2="192.33" style="stroke-width:2.00;stroke:rgb(0,112,145)"/>
<g transform="translate(863.51 152.89)">
<g transform="rotate(135.58)">
<text x="0" y="0" style="font-family:Arial;font-size:15.00px;fill:rgb(0,0,0);text-anchor:middle;">5</text>
</g></g>
<!-- Edge:    57   61 -->
<line x1="878.01" y1="124.67" x2="835.00" y2="166.83" style="stroke-width:2.00;stroke:rgb(0,112,145)"/>
<g transform="translate(827.04 198.81)">
<g transform="rotate(266.32)">
<text x="0" y="0" style="font-family:Arial;font-size:15.00px;fill:rgb(0,0,0);text-anchor:middle;">5</text>
</g></g>
<!-- Edge:    60   61 -->
<line x1="839.03" y1="229.52" x2="835.00" y2="166.83" style="stroke-width:2.00;stroke:rgb(0,112,145)"/>
<g transform="translate(971.11 88.35)">
<g transform="rotate(133.31)">
<text x="0" y="0" style="font-family:Arial;font-size:15.00px;fill:rgb(0,0,0);text-anchor:middle;">5</text>
</g></g>
<!-- Edge:    64   67 -->
<line x1="991.07" y1="52.59" x2="936.59" y2="110.39" style="stroke-width:2.00;stroke:rgb(0,112,145)"/>
<g transform="translate(795.79 76.43)">
<g transform="rotate(123.04)">
<text x="0" y="0" style="font-family:Arial;font-size:15.00px;fill:rgb(0,0,0);text-anchor:middle;">5</text>
</g></g>
<!-- Edge:    66   68 -->
<line x1="798.84" y1="53.40" x2="775.98" y2="88.57" style="stroke-width:2.00;stroke:rgb(0,112,145)"/>
<g transform="translate(757.77 119.89)">
<g transform="rotate(136.19)">
<text x="0" y="0" style="font-family:Arial;font-size:15.00px;fill:rgb(0,0,0);text-anchor:middle;">5</text>
</g></g>
<!-- Edge:    68   72 -->
<line x1="775.98" y1="88.57" x2="725.71" y2="136.79" style="stroke-width:2.00;stroke:rgb(0,112,145)"/>
<g transform="translate(734.43 83.37)">
<g transform="rotate(200.94)">
<text x="0" y="0" style="font-family:Arial;font-size:15.00px;fill:rgb(0,0,0);text-anchor:middle;">5</text>
</g></g>
<!-- Edge:    68   74 -->
<line x1="775.98" y1="88.57" x2="700.03" y2="59.50" style="stroke-width:2.00;stroke:rgb(0,112,145)"/>
<g transform="translate(194.35 240.80)">
<g transform="rotate(165.67)">
<text x="0" y="0" style="font-family:Arial;font-size:15.00px;fill:rgb(0,0,0);text-anchor:middle;">5</text>
</g></g>
<!-- Edge:    75   81 -->
<line x1="239.72" y1="218.89" x2="144.04" y2="243.33" style="stroke-width:2.00;stroke:rgb(0,112,145)"/>
<g transform="translate(280.94 246.51)">
<g transform="rotate(122.00)">
<text x="0" y="0" style="font-family:Arial;font-size:15.00px;fill:rgb(0,0,0);text-anchor:middle;">5</text>
</g></g>
<!-- Edge:    77   78 -->
<line x1="287.06" y1="217.83" x2="257.85" y2="264.58" style="stroke-width:2.00;stroke:rgb(0,112,145)"/>
<g transform="translate(199.11 263.79)">
<g transform="rotate(190.58)">
<text x="0" y="0" style="font-family:Arial;font-size:15.00px;fill:rgb(0,0,0);text-anchor:middle;">5</text>
</g></g>
<!-- Edge:    78   81 -->
<line x1="257.85" y1="264.58" x2="144.04" y2="243.33" style="stroke-width:2.00;stroke:rgb(0,112,145)"/>
<g transform="translate(226.73 155.33)">
<g transform="rotate(209.60)">
<text x="0" y="0" style="font-family:Arial;font-size:15.00px;fill:rgb(0,0,0);text-anchor:middle;">5</text>
</g></g>
<!-- Edge:    79   80 -->
<line x1="270.95" y1="168.95" x2="192.38" y2="124.32" style="stroke-width:2.00;stroke:rgb(0,112,145)"/>
<g transform="translate(209.81 106.54)">
<g transform="rotate(-21.89)">
<text x="0" y="0" style="font-family:Arial;font-size:15.00px;fill:rgb(0,0,0);text-anchor:middle;">5</text>
</g></g>
<!-- Edge:    80   82 -->
<line x1="192.38" y1="124.32" x2="234.69" y2="107.32" style="stroke-width:2.00;stroke:rgb(0,112,145)"/>
<g transform="translate(213.26 149.86)">
<g transform="rotate(68.38)">
<text x="0" y="0" style="font-family:Arial;font-size:15.00px;fill:rgb(0,0,0);text-anchor:middle;">5</text>
</g></g>
<!-- Edge:    80   84 -->
<line x1="192.38" y1="124.32" x2="215.55" y2="182.76" style="stroke-width:2.00;stroke:rgb(0,112,145)"/>
<g transform="translate(173.33 205.42)">
<g transform="rotate(-40.26)">
<text x="0" y="0" style="font-family:Arial;font-size:15.00px;fill:rgb(0,0,0);text-anchor:middle;">5</text>
</g></g>
<!-- Edge:    81   84 -->
<line x1="144.04" y1="243.33" x2="215.55" y2="182.76" style="stroke-width:2.00;stroke:rgb(0,112,145)"/>
<g transform="translate(142.70 181.88)">
<g transform="rotate(-81.88)">
<text x="0" y="0" style="font-family:Arial;font-size:15.00px;fill:rgb(0,0,0);text-anchor:middle;">6</text>
</g></g>
<!-- Edge:    81   86 -->
<line x1="144.04" y1="243.33" x2="161.16" y2="123.26" style="stroke-width:2.00;stroke:rgb(0,112,145)"/>
<g transform="translate(113.72 168.34)">
<g transform="rotate(255.09)">
<text x="0" y="0" style="font-family:Arial;font-size:15.00px;fill:rgb(0,0,0);text-anchor:middle;">5</text>
</g></g>
<!-- Edge:    81   88 -->
<line x1="144.04" y1="243.33" x2="102.74" y2="88.19" style="stroke-width:2.00;stroke:rgb(0,112,145)"/>
<g transform="translate(108.47 235.08)">
<g transform="rotate(208.96)">
<text x="0" y="0" style="font-family:Arial;font-size:15.00px;fill:rgb(0,0,0);text-anchor:middle;">5</text>
</g></g>
<!-- Edge:    81   90 -->
<line x1="144.04" y1="243.33" x2="82.59" y2="209.33" style="stroke-width:2.00;stroke:rgb(0,112,145)"/>
<g transform="translate(65.32 143.65)">
<g transform="rotate(192.52)">
<text x="0" y="0" style="font-family:Arial;font-size:15.00px;fill:rgb(0,0,0);text-anchor:middle;">5</text>
</g></g>
<!-- Edge:    87   94 -->
<line x1="86.62" y1="138.14" x2="48.35" y2="129.64" style="stroke-width:2.00;stroke:rgb(0,112,145)"/>
<g transform="translate(116.34 65.35)">
<g transform="rotate(-37.14)">
<text x="0" y="0" style="font-family:Arial;font-size:15.00px;fill:rgb(0,0,0);text-anchor:middle;">5</text>
</g></g>
<!-- Edge:    88   89 -->
<line x1="102.74" y1="88.19" x2="142.02" y2="58.44" style="stroke-width:2.00;stroke:rgb(0,112,145)"/>
<g transform="translate(56.28 173.43)">
<g transform="rotate(246.75)">
<text x="0" y="0" style="font-family:Arial;font-size:15.00px;fill:rgb(0,0,0);text-anchor:middle;">5</text>
</g></g>
<!-- Edge:    90   94 -->
<line x1="82.59" y1="209.33" x2="48.35" y2="129.64" style="stroke-width:2.00;stroke:rgb(0,112,145)"/>
<g transform="translate(29.35 153.40)">
<g transform="rotate(-70.55)">
<text x="0" y="0" style="font-family:Arial;font-size:15.00px;fill:rgb(0,0,0);text-anchor:middle;">5</text>
</g></g>
<!-- Edge:    92   94 -->
<line x1="29.21" y1="183.83" x2="48.35" y2="129.64" style="stroke-width:2.00;stroke:rgb(0,112,145)"/>
<g transform="translate(42.04 86.20)">
<g transform="rotate(-85.10)">
<text x="0" y="0" style="font-family:Arial;font-size:15.00px;fill:rgb(0,0,0);text-anchor:middle;">5</text>
</g></g>
<!-- Edge:    94   99 -->
<line x1="48.35" y1="129.64" x2="55.65" y2="44.48" style="stroke-width:2.00;stroke:rgb(0,112,145)"/>
<g transform="translate(1036.33 84.71)">
<g transform="rotate(251.22)">
<text x="0" y="0" style="font-family:Arial;font-size:15.00px;fill:rgb(0,0,0);text-anchor:middle;">6</text>
</g></g>
<!-- Edge:    97  100 -->
<line x1="1057.35" y1="115.47" x2="1034.24" y2="47.51" style="stroke-width:2.00;stroke:rgb(0,112,145)"/>

<!-- Vertex:     1 -->
<ellipse cx="892.00" cy="741.95" rx="10.00" ry="10.00" style="fill:rgb(255,217,188);stroke:rgb(102,0,0);stroke-width:0.50;"/>
<!-- Vertex:     2 -->
<ellipse cx="499.59" cy="182.76" rx="10.00" ry="10.00" style="fill:rgb(255,217,188);stroke:rgb(102,0,0);stroke-width:0.50;"/>
<!-- Vertex:     3 -->
<ellipse cx="632.29" cy="741.95" rx="10.00" ry="10.00" style="fill:rgb(255,217,188);stroke:rgb(102,0,0);stroke-width:0.50;"/>
<!-- Vertex:     4 -->
<ellipse cx="372.59" cy="337.29" rx="10.00" ry="10.00" style="fill:rgb(255,217,188);stroke:rgb(102,0,0);stroke-width:0.50;"/>
<!-- Vertex:     5 -->
<ellipse cx="762.15" cy="404.74" rx="10.00" ry="10.00" style="fill:rgb(255,217,188);stroke:rgb(102,0,0);stroke-width:0.50;"/>
<!-- Vertex:     6 -->
<ellipse cx="465.34" cy="81.82" rx="10.00" ry="10.00" style="fill:rgb(255,217,188);stroke:rgb(102,0,0);stroke-width:0.50;"/>
<!-- Vertex:     7 -->
<ellipse cx="632.29" cy="472.18" rx="10.00" ry="10.00" style="fill:rgb(255,217,188);stroke:rgb(102,0,0);stroke-width:0.50;"/>
<!-- Vertex:     8 -->
<ellipse cx="465.34" cy="39.32" rx="10.00" ry="10.00" style="fill:rgb(255,217,188);stroke:rgb(102,0,0);stroke-width:0.50;"/>
<!-- Vertex:     9 -->
<ellipse cx="507.85" cy="82.92" rx="10.00" ry="10.00" style="fill:rgb(255,217,188);stroke:rgb(102,0,0);stroke-width:0.50;"/>
<!-- Vertex:    10 -->
<ellipse cx="533.84" cy="133.89" rx="10.00" ry="10.00" style="fill:rgb(255,217,188);stroke:rgb(102,0,0);stroke-width:0.50;"/>
<!-- Vertex:    11 -->
<ellipse cx="632.29" cy="674.51" rx="10.00" ry="10.00" style="fill:rgb(255,217,188);stroke:rgb(102,0,0);stroke-width:0.50;"/>
<!-- Vertex:    12 -->
<ellipse cx="557.50" cy="43.34" rx="10.00" ry="10.00" style="fill:rgb(255,217,188);stroke:rgb(102,0,0);stroke-width:0.50;"/>
<!-- Vertex:    13 -->
<ellipse cx="112.88" cy="337.29" rx="10.00" ry="10.00" style="fill:rgb(255,217,188);stroke:rgb(102,0,0);stroke-width:0.50;"/>
<!-- Vertex:    14 -->
<ellipse cx="242.74" cy="337.29" rx="10.00" ry="10.00" style="fill:rgb(255,217,188);stroke:rgb(102,0,0);stroke-width:0.50;"/>
<!-- Vertex:    15 -->
<ellipse cx="502.44" cy="337.29" rx="10.00" ry="10.00" style="fill:rgb(255,217,188);stroke:rgb(102,0,0);stroke-width:0.50;"/>
<!-- Vertex:    16 -->
<ellipse cx="632.29" cy="404.74" rx="10.00" ry="10.00" style="fill:rgb(255,217,188);stroke:rgb(102,0,0);stroke-width:0.50;"/>
<!-- Vertex:    17 -->
<ellipse cx="112.88" cy="472.18" rx="10.00" ry="10.00" style="fill:rgb(255,217,188);stroke:rgb(102,0,0);stroke-width:0.50;"/>
<!-- Vertex:    18 -->
<ellipse cx="502.44" cy="472.18" rx="10.00" ry="10.00" style="fill:rgb(255,217,188);stroke:rgb(102,0,0);stroke-width:0.50;"/>
<!-- Vertex:    19 -->
<ellipse cx="762.15" cy="539.62" rx="10.00" ry="10.00" style="fill:rgb(255,217,188);stroke:rgb(102,0,0);stroke-width:0.50;"/>
<!-- Vertex:    20 -->
<ellipse cx="1021.85" cy="607.06" rx="10.00" ry="10.00" style="fill:rgb(255,217,188);stroke:rgb(102,0,0);stroke-width:0.50;"/>
<!-- Vertex:    21 -->
<ellipse cx="892.00" cy="337.29" rx="10.00" ry="10.00" style="fill:rgb(255,217,188);stroke:rgb(102,0,0);stroke-width:0.50;"/>
<!-- Vertex:    22 -->
<ellipse cx="1021.85" cy="337.29" rx="10.00" ry="10.00" style="fill:rgb(255,217,188);stroke:rgb(102,0,0);stroke-width:0.50;"/>
<!-- Vertex:    23 -->
<ellipse cx="112.88" cy="404.74" rx="10.00" ry="10.00" style="fill:rgb(255,217,188);stroke:rgb(102,0,0);stroke-width:0.50;"/>
<!-- Vertex:    24 -->
<ellipse cx="584.78" cy="89.87" rx="10.00" ry="10.00" style="fill:rgb(255,217,188);stroke:rgb(102,0,0);stroke-width:0.50;"/>
<!-- Vertex:    25 -->
<ellipse cx="372.59" cy="404.74" rx="10.00" ry="10.00" style="fill:rgb(255,217,188);stroke:rgb(102,0,0);stroke-width:0.50;"/>
<!-- Vertex:    26 -->
<ellipse cx="502.44" cy="404.74" rx="10.00" ry="10.00" style="fill:rgb(255,217,188);stroke:rgb(102,0,0);stroke-width:0.50;"/>
<!-- Vertex:    27 -->
<ellipse cx="633.34" cy="82.23" rx="10.00" ry="10.00" style="fill:rgb(255,217,188);stroke:rgb(102,0,0);stroke-width:0.50;"/>
<!-- Vertex:    28 -->
<ellipse cx="632.29" cy="337.29" rx="10.00" ry="10.00" style="fill:rgb(255,217,188);stroke:rgb(102,0,0);stroke-width:0.50;"/>
<!-- Vertex:    29 -->
<ellipse cx="587.22" cy="144.51" rx="10.00" ry="10.00" style="fill:rgb(255,217,188);stroke:rgb(102,0,0);stroke-width:0.50;"/>
<!-- Vertex:    30 -->
<ellipse cx="626.50" cy="153.01" rx="10.00" ry="10.00" style="fill:rgb(255,217,188);stroke:rgb(102,0,0);stroke-width:0.50;"/>
<!-- Vertex:    31 -->
<ellipse cx="246.77" cy="47.82" rx="10.00" ry="10.00" style="fill:rgb(255,217,188);stroke:rgb(102,0,0);stroke-width:0.50;"/>
<!-- Vertex:    32 -->
<ellipse cx="299.13" cy="42.03" rx="10.00" ry="10.00" style="fill:rgb(255,217,188);stroke:rgb(102,0,0);stroke-width:0.50;"/>
<!-- Vertex:    33 -->
<ellipse cx="892.00" cy="404.74" rx="10.00" ry="10.00" style="fill:rgb(255,217,188);stroke:rgb(102,0,0);stroke-width:0.50;"/>
<!-- Vertex:    34 -->
<ellipse cx="329.37" cy="149.82" rx="10.00" ry="10.00" style="fill:rgb(255,217,188);stroke:rgb(102,0,0);stroke-width:0.50;"/>
<!-- Vertex:    35 -->
<ellipse cx="1021.85" cy="404.74" rx="10.00" ry="10.00" style="fill:rgb(255,217,188);stroke:rgb(102,0,0);stroke-width:0.50;"/>
<!-- Vertex:    36 -->
<ellipse cx="242.74" cy="472.18" rx="10.00" ry="10.00" style="fill:rgb(255,217,188);stroke:rgb(102,0,0);stroke-width:0.50;"/>
<!-- Vertex:    37 -->
<ellipse cx="372.59" cy="472.18" rx="10.00" ry="10.00" style="fill:rgb(255,217,188);stroke:rgb(102,0,0);stroke-width:0.50;"/>
<!-- Vertex:    38 -->
<ellipse cx="762.15" cy="472.18" rx="10.00" ry="10.00" style="fill:rgb(255,217,188);stroke:rgb(102,0,0);stroke-width:0.50;"/>
<!-- Vertex:    39 -->
<ellipse cx="502.44" cy="539.62" rx="10.00" ry="10.00" style="fill:rgb(255,217,188);stroke:rgb(102,0,0);stroke-width:0.50;"/>
<!-- Vertex:    40 -->
<ellipse cx="632.29" cy="607.06" rx="10.00" ry="10.00" style="fill:rgb(255,217,188);stroke:rgb(102,0,0);stroke-width:0.50;"/>
<!-- Vertex:    41 -->
<ellipse cx="762.15" cy="607.06" rx="10.00" ry="10.00" style="fill:rgb(255,217,188);stroke:rgb(102,0,0);stroke-width:0.50;"/>
<!-- Vertex:    42 -->
<ellipse cx="367.64" cy="126.45" rx="10.00" ry="10.00" style="fill:rgb(255,217,188);stroke:rgb(102,0,0);stroke-width:0.50;"/>
<!-- Vertex:    43 -->
<ellipse cx="892.00" cy="472.18" rx="10.00" ry="10.00" style="fill:rgb(255,217,188);stroke:rgb(102,0,0);stroke-width:0.50;"/>
<!-- Vertex:    44 -->
<ellipse cx="406.92" cy="108.38" rx="10.00" ry="10.00" style="fill:rgb(255,217,188);stroke:rgb(102,0,0);stroke-width:0.50;"/>
<!-- Vertex:    45 -->
<ellipse cx="1021.85" cy="472.18" rx="10.00" ry="10.00" style="fill:rgb(255,217,188);stroke:rgb(102,0,0);stroke-width:0.50;"/>
<!-- Vertex:    46 -->
<ellipse cx="112.88" cy="539.62" rx="10.00" ry="10.00" style="fill:rgb(255,217,188);stroke:rgb(102,0,0);stroke-width:0.50;"/>
<!-- Vertex:    47 -->
<ellipse cx="242.74" cy="539.62" rx="10.00" ry="10.00" style="fill:rgb(255,217,188);stroke:rgb(102,0,0);stroke-width:0.50;"/>
<!-- Vertex:    48 -->
<ellipse cx="372.59" cy="539.62" rx="10.00" ry="10.00" style="fill:rgb(255,217,188);stroke:rgb(102,0,0);stroke-width:0.50;"/>
<!-- Vertex:    49 -->
<ellipse cx="906.01" cy="40.22" rx="10.00" ry="10.00" style="fill:rgb(255,217,188);stroke:rgb(102,0,0);stroke-width:0.50;"/>
<!-- Vertex:    50 -->
<ellipse cx="632.29" cy="539.62" rx="10.00" ry="10.00" style="fill:rgb(255,217,188);stroke:rgb(102,0,0);stroke-width:0.50;"/>
<!-- Vertex:    51 -->
<ellipse cx="425.62" cy="172.18" rx="10.00" ry="10.00" style="fill:rgb(255,217,188);stroke:rgb(102,0,0);stroke-width:0.50;"/>
<!-- Vertex:    52 -->
<ellipse cx="242.74" cy="404.74" rx="10.00" ry="10.00" style="fill:rgb(255,217,188);stroke:rgb(102,0,0);stroke-width:0.50;"/>
<!-- Vertex:    53 -->
<ellipse cx="892.00" cy="539.62" rx="10.00" ry="10.00" style="fill:rgb(255,217,188);stroke:rgb(102,0,0);stroke-width:0.50;"/>
<!-- Vertex:    54 -->
<ellipse cx="1021.85" cy="539.62" rx="10.00" ry="10.00" style="fill:rgb(255,217,188);stroke:rgb(102,0,0);stroke-width:0.50;"/>
<!-- Vertex:    55 -->
<ellipse cx="349.51" cy="192.33" rx="10.00" ry="10.00" style="fill:rgb(255,217,188);stroke:rgb(102,0,0);stroke-width:0.50;"/>
<!-- Vertex:    56 -->
<ellipse cx="112.88" cy="607.06" rx="10.00" ry="10.00" style="fill:rgb(255,217,188);stroke:rgb(102,0,0);stroke-width:0.50;"/>
<!-- Vertex:    57 -->
<ellipse cx="878.01" cy="124.67" rx="10.00" ry="10.00" style="fill:rgb(255,217,188);stroke:rgb(102,0,0);stroke-width:0.50;"/>
<!-- Vertex:    58 -->
<ellipse cx="242.74" cy="607.06" rx="10.00" ry="10.00" style="fill:rgb(255,217,188);stroke:rgb(102,0,0);stroke-width:0.50;"/>
<!-- Vertex:    59 -->
<ellipse cx="372.59" cy="607.06" rx="10.00" ry="10.00" style="fill:rgb(255,217,188);stroke:rgb(102,0,0);stroke-width:0.50;"/>
<!-- Vertex:    60 -->
<ellipse cx="839.03" cy="229.52" rx="10.00" ry="10.00" style="fill:rgb(255,217,188);stroke:rgb(102,0,0);stroke-width:0.50;"/>
<!-- Vertex:    61 -->
<ellipse cx="835.00" cy="166.83" rx="10.00" ry="10.00" style="fill:rgb(255,217,188);stroke:rgb(102,0,0);stroke-width:0.50;"/>
<!-- Vertex:    62 -->
<ellipse cx="502.44" cy="607.06" rx="10.00" ry="10.00" style="fill:rgb(255,217,188);stroke:rgb(102,0,0);stroke-width:0.50;"/>
<!-- Vertex:    63 -->
<ellipse cx="762.15" cy="337.29" rx="10.00" ry="10.00" style="fill:rgb(255,217,188);stroke:rgb(102,0,0);stroke-width:0.50;"/>
<!-- Vertex:    64 -->
<ellipse cx="991.07" cy="52.59" rx="10.00" ry="10.00" style="fill:rgb(255,217,188);stroke:rgb(102,0,0);stroke-width:0.50;"/>
<!-- Vertex:    65 -->
<ellipse cx="892.00" cy="607.06" rx="10.00" ry="10.00" style="fill:rgb(255,217,188);stroke:rgb(102,0,0);stroke-width:0.50;"/>
<!-- Vertex:    66 -->
<ellipse cx="798.84" cy="53.40" rx="10.00" ry="10.00" style="fill:rgb(255,217,188);stroke:rgb(102,0,0);stroke-width:0.50;"/>
<!-- Vertex:    67 -->
<ellipse cx="936.59" cy="110.39" rx="10.00" ry="10.00" style="fill:rgb(255,217,188);stroke:rgb(102,0,0);stroke-width:0.50;"/>
<!-- Vertex:    68 -->
<ellipse cx="775.98" cy="88.57" rx="10.00" ry="10.00" style="fill:rgb(255,217,188);stroke:rgb(102,0,0);stroke-width:0.50;"/>
<!-- Vertex:    69 -->
<ellipse cx="112.88" cy="674.51" rx="10.00" ry="10.00" style="fill:rgb(255,217,188);stroke:rgb(102,0,0);stroke-width:0.50;"/>
<!-- Vertex:    70 -->
<ellipse cx="242.74" cy="674.51" rx="10.00" ry="10.00" style="fill:rgb(255,217,188);stroke:rgb(102,0,0);stroke-width:0.50;"/>
<!-- Vertex:    71 -->
<ellipse cx="372.59" cy="674.51" rx="10.00" ry="10.00" style="fill:rgb(255,217,188);stroke:rgb(102,0,0);stroke-width:0.50;"/>
<!-- Vertex:    72 -->
<ellipse cx="725.71" cy="136.79" rx="10.00" ry="10.00" style="fill:rgb(255,217,188);stroke:rgb(102,0,0);stroke-width:0.50;"/>
<!-- Vertex:    73 -->
<ellipse cx="502.44" cy="674.51" rx="10.00" ry="10.00" style="fill:rgb(255,217,188);stroke:rgb(102,0,0);stroke-width:0.50;"/>
<!-- Vertex:    74 -->
<ellipse cx="700.03" cy="59.50" rx="10.00" ry="10.00" style="fill:rgb(255,217,188);stroke:rgb(102,0,0);stroke-width:0.50;"/>
<!-- Vertex:    75 -->
<ellipse cx="239.72" cy="218.89" rx="10.00" ry="10.00" style="fill:rgb(255,217,188);stroke:rgb(102,0,0);stroke-width:0.50;"/>
<!-- Vertex:    76 -->
<ellipse cx="762.15" cy="674.51" rx="10.00" ry="10.00" style="fill:rgb(255,217,188);stroke:rgb(102,0,0);stroke-width:0.50;"/>
<!-- Vertex:    77 -->
<ellipse cx="287.06" cy="217.83" rx="10.00" ry="10.00" style="fill:rgb(255,217,188);stroke:rgb(102,0,0);stroke-width:0.50;"/>
<!-- Vertex:    78 -->
<ellipse cx="257.85" cy="264.58" rx="10.00" ry="10.00" style="fill:rgb(255,217,188);stroke:rgb(102,0,0);stroke-width:0.50;"/>
<!-- Vertex:    79 -->
<ellipse cx="270.95" cy="168.95" rx="10.00" ry="10.00" style="fill:rgb(255,217,188);stroke:rgb(102,0,0);stroke-width:0.50;"/>
<!-- Vertex:    80 -->
<ellipse cx="192.38" cy="124.32" rx="10.00" ry="10.00" style="fill:rgb(255,217,188);stroke:rgb(102,0,0);stroke-width:0.50;"/>
<!-- Vertex:    81 -->
<ellipse cx="144.04" cy="243.33" rx="10.00" ry="10.00" style="fill:rgb(255,217,188);stroke:rgb(102,0,0);stroke-width:0.50;"/>
<!-- Vertex:    82 -->
<ellipse cx="234.69" cy="107.32" rx="10.00" ry="10.00" style="fill:rgb(255,217,188);stroke:rgb(102,0,0);stroke-width:0.50;"/>
<!-- Vertex:    83 -->
<ellipse cx="892.00" cy="674.51" rx="10.00" ry="10.00" style="fill:rgb(255,217,188);stroke:rgb(102,0,0);stroke-width:0.50;"/>
<!-- Vertex:    84 -->
<ellipse cx="215.55" cy="182.76" rx="10.00" ry="10.00" style="fill:rgb(255,217,188);stroke:rgb(102,0,0);stroke-width:0.50;"/>
<!-- Vertex:    85 -->
<ellipse cx="1021.85" cy="674.51" rx="10.00" ry="10.00" style="fill:rgb(255,217,188);stroke:rgb(102,0,0);stroke-width:0.50;"/>
<!-- Vertex:    86 -->
<ellipse cx="161.16" cy="123.26" rx="10.00" ry="10.00" style="fill:rgb(255,217,188);stroke:rgb(102,0,0);stroke-width:0.50;"/>
<!-- Vertex:    87 -->
<ellipse cx="86.62" cy="138.14" rx="10.00" ry="10.00" style="fill:rgb(255,217,188);stroke:rgb(102,0,0);stroke-width:0.50;"/>
<!-- Vertex:    88 -->
<ellipse cx="102.74" cy="88.19" rx="10.00" ry="10.00" style="fill:rgb(255,217,188);stroke:rgb(102,0,0);stroke-width:0.50;"/>
<!-- Vertex:    89 -->
<ellipse cx="142.02" cy="58.44" rx="10.00" ry="10.00" style="fill:rgb(255,217,188);stroke:rgb(102,0,0);stroke-width:0.50;"/>
<!-- Vertex:    90 -->
<ellipse cx="82.59" cy="209.33" rx="10.00" ry="10.00" style="fill:rgb(255,217,188);stroke:rgb(102,0,0);stroke-width:0.50;"/>
<!-- Vertex:    91 -->
<ellipse cx="112.88" cy="741.95" rx="10.00" ry="10.00" style="fill:rgb(255,217,188);stroke:rgb(102,0,0);stroke-width:0.50;"/>
<!-- Vertex:    92 -->
<ellipse cx="29.21" cy="183.83" rx="10.00" ry="10.00" style="fill:rgb(255,217,188);stroke:rgb(102,0,0);stroke-width:0.50;"/>
<!-- Vertex:    93 -->
<ellipse cx="242.74" cy="741.95" rx="10.00" ry="10.00" style="fill:rgb(255,217,188);stroke:rgb(102,0,0);stroke-width:0.50;"/>
<!-- Vertex:    94 -->
<ellipse cx="48.35" cy="129.64" rx="10.00" ry="10.00" style="fill:rgb(255,217,188);stroke:rgb(102,0,0);stroke-width:0.50;"/>
<!-- Vertex:    95 -->
<ellipse cx="372.59" cy="741.95" rx="10.00" ry="10.00" style="fill:rgb(255,217,188);stroke:rgb(102,0,0);stroke-width:0.50;"/>
<!-- Vertex:    96 -->
<ellipse cx="502.44" cy="741.95" rx="10.00" ry="10.00" style="fill:rgb(255,217,188);stroke:rgb(102,0,0);stroke-width:0.50;"/>
<!-- Vertex:    97 -->
<ellipse cx="1057.35" cy="115.47" rx="10.00" ry="10.00" style="fill:rgb(255,217,188);stroke:rgb(102,0,0);stroke-width:0.50;"/>
<!-- Vertex:    98 -->
<ellipse cx="762.15" cy="741.95" rx="10.00" ry="10.00" style="fill:rgb(255,217,188);stroke:rgb(102,0,0);stroke-width:0.50;"/>
<!-- Vertex:    99 -->
<ellipse cx="55.65" cy="44.48" rx="10.00" ry="10.00" style="fill:rgb(255,217,188);stroke:rgb(102,0,0);stroke-width:0.50;"/>
<!-- Vertex:   100 -->
<ellipse cx="1034.24" cy="47.51" rx="10.00" ry="10.00" style="fill:rgb(255,217,188);stroke:rgb(102,0,0);stroke-width:0.50;"/>
</g>         <!-- Layer Network -->
</svg>
