<?xml version="1.0" encoding="UTF-8"?>
<!-- Title: 1. Y:\Desktop\network.net (100) -->
<!-- Creator: Pajek 5.13: http://mrvar.fdv.uni-lj.si/pajek -->
<!-- CreationDate: 08-26-2021, 8:28:54 -->
<svg xml:space="preserve" viewBox="0 0 1113 781" xmlns="http://www.w3.org/2000/svg" xmlns:xlink="http://www.w3.org/1999/xlink" xmlns:inkscape="http://www.inkscape.org/namespaces/inkscape">
<title>1. Y:\Desktop\network.net (100)</title>
<g inkscape:groupmode="layer" id="PajekSig" inkscape:label="PajekSignature">
<g transform="translate(3 763)">
<g transform="scale(0.1)">
<g transform="matrix(1 0 0 -1 0 96)">
<path d="M   7.67  49.98 L  31.76  72.76 L  46.91  78.63
         L  57.23  80.49 M  72.86  65.23 L  65.73  83.25
         L  57.06  75.49 L  56.75  68.65 M  76.27  68.03
         L  75.65  84.50 L  93.92  91.02 L 107.24  74.87
         M  80.29  67.72 L  89.28  84.81 L 104.77  81.70
         L 116.23  73.31 L 121.18  59.33 M  56.75  81.08
         L  71.31  64.30"
         style="fill:none; stroke:saddlebrown; stroke-width:5;"/>
<path d="M  86.18  70.21 L  91.45  73.00 L  95.78  69.58
         M  91.14  60.88 L  96.09  62.75 L  98.26  59.33"
         style="fill:none; stroke:saddlebrown; stroke-width:1.5;"/>
<path d="M  81.07  49.08 L  87.81  49.08 L  93.30  54.38
         L  93.30  60.88 L  93.30  67.39 L  87.81  72.69
         L  81.07  72.69 L  74.33  72.69 L  68.83  67.39
         L  68.83  60.88 L  68.83  54.38 L  74.33  49.08
         L  81.07  49.08 z"
         style="fill:maroon; stroke:saddlebrown; stroke-width:1;"/>
<path d="M  54.63  37.53 L  68.53  43.56 L  75.39  55.85
         L  69.90  65.35 L  64.41  72.86 L  48.60  74.06
         L  34.71  68.04 L  20.81  55.02 L  15.95  40.72
         L  17.44  33.22 L  24.92  28.72 L  40.73  30.51
         L  54.63  37.53 z"
         style="fill:maroon; stroke:saddlebrown; stroke-width:1;" />
<path d="M  77.82  50.63 L 103.84  59.33 L 131.10  43.80
         L 139.46  27.95 L 139.15  15.83 M  35.99   5.27
         L  47.15  32.92 L  61.71  50.01 L  70.07  46.90
         L  82.77  45.04 L  83.39  27.02 L  65.42  12.11
         M  68.52  50.63 L  91.14  49.39 L 103.53  43.17
         L 117.16  22.67 L 115.30   8.38"
         style="fill:none; stroke:saddlebrown; stroke-width:5;"/>
<path d="M  41.57  54.98 L  60.16  64.61 M  52.41  66.17
         L  57.99  57.47"
         style="fill:none; stroke:white; stroke-width:5;"/>
</g>
</g>
<animateMotion dur="20s" path="M3 0 L1095 0" begin="120s" fill="freeze"/>
</g>
<g transform="translate(3 763)">
<g transform="scale(0.1)">
<text x="5" y="140" style="font-family:Brush Script MT;font-size:75px;fill:green;">Pajek</text>
</g>
<animateMotion dur="0.1s" path="M3 0 L1095 0" begin="120s" fill="freeze"/>
</g>
</g>      <!-- Layer Signature -->

<g inkscape:groupmode="layer" id="PajekNet" inkscape:label="PajekNetwork">

<!-- Edge:     1   99 -->
<line x1="93.93" y1="180.07" x2="129.93" y2="253.96" style="stroke-width:2.00;stroke:rgb(0,0,0)"/>
<!-- Edge:     6   29 -->
<line x1="368.65" y1="110.51" x2="395.85" y2="197.64" style="stroke-width:2.00;stroke:rgb(0,0,0)"/>
<!-- Edge:     6   78 -->
<line x1="368.65" y1="110.51" x2="245.77" y2="117.95" style="stroke-width:2.00;stroke:rgb(0,0,0)"/>
<!-- Edge:    10   78 -->
<line x1="181.30" y1="130.70" x2="245.77" y2="117.95" style="stroke-width:2.00;stroke:rgb(0,0,0)"/>
<!-- Edge:    15   67 -->
<line x1="398.87" y1="376.16" x2="358.58" y2="376.16" style="stroke-width:2.00;stroke:rgb(0,0,0)"/>
<!-- Edge:    18   93 -->
<line x1="432.11" y1="287.96" x2="465.34" y2="202.95" style="stroke-width:2.00;stroke:rgb(0,0,0)"/>
<!-- Edge:    19   29 -->
<line x1="368.65" y1="328.34" x2="395.85" y2="197.64" style="stroke-width:2.00;stroke:rgb(0,0,0)"/>
<!-- Edge:    19   32 -->
<line x1="368.65" y1="328.34" x2="462.32" y2="352.78" style="stroke-width:2.00;stroke:rgb(0,0,0)"/>
<!-- Edge:    19   36 -->
<line x1="368.65" y1="328.34" x2="490.53" y2="314.53" style="stroke-width:2.00;stroke:rgb(0,0,0)"/>
<!-- Edge:    19   57 -->
<line x1="368.65" y1="328.34" x2="289.08" y2="249.71" style="stroke-width:2.00;stroke:rgb(0,0,0)"/>
<!-- Edge:    19   67 -->
<line x1="368.65" y1="328.34" x2="358.58" y2="376.16" style="stroke-width:2.00;stroke:rgb(0,0,0)"/>
<!-- Edge:    19   68 -->
<line x1="368.65" y1="328.34" x2="280.01" y2="352.78" style="stroke-width:2.00;stroke:rgb(0,0,0)"/>
<!-- Edge:    19   99 -->
<line x1="368.65" y1="328.34" x2="129.93" y2="253.96" style="stroke-width:2.00;stroke:rgb(0,0,0)"/>
<!-- Edge:    23   90 -->
<line x1="92.67" y1="341.09" x2="125.90" y2="304.96" style="stroke-width:2.00;stroke:rgb(0,0,0)"/>
<!-- Edge:    29   46 -->
<line x1="395.85" y1="197.64" x2="256.85" y2="194.45" style="stroke-width:2.00;stroke:rgb(0,0,0)"/>
<!-- Edge:    29   57 -->
<line x1="395.85" y1="197.64" x2="289.08" y2="249.71" style="stroke-width:2.00;stroke:rgb(0,0,0)"/>
<!-- Edge:    29   78 -->
<line x1="395.85" y1="197.64" x2="245.77" y2="117.95" style="stroke-width:2.00;stroke:rgb(0,0,0)"/>
<!-- Edge:    29   84 -->
<line x1="395.85" y1="197.64" x2="236.70" y2="155.14" style="stroke-width:2.00;stroke:rgb(0,0,0)"/>
<!-- Edge:    29   96 -->
<line x1="395.85" y1="197.64" x2="435.13" y2="144.51" style="stroke-width:2.00;stroke:rgb(0,0,0)"/>
<!-- Edge:    29   99 -->
<line x1="395.85" y1="197.64" x2="129.93" y2="253.96" style="stroke-width:2.00;stroke:rgb(0,0,0)"/>
<!-- Edge:    42   99 -->
<line x1="84.61" y1="293.27" x2="129.93" y2="253.96" style="stroke-width:2.00;stroke:rgb(0,0,0)"/>
<!-- Edge:    46   57 -->
<line x1="256.85" y1="194.45" x2="289.08" y2="249.71" style="stroke-width:2.00;stroke:rgb(0,0,0)"/>
<!-- Edge:    46   99 -->
<line x1="256.85" y1="194.45" x2="129.93" y2="253.96" style="stroke-width:2.00;stroke:rgb(0,0,0)"/>
<!-- Edge:    57   99 -->
<line x1="289.08" y1="249.71" x2="129.93" y2="253.96" style="stroke-width:2.00;stroke:rgb(0,0,0)"/>
<!-- Edge:    68   99 -->
<line x1="280.01" y1="352.78" x2="129.93" y2="253.96" style="stroke-width:2.00;stroke:rgb(0,0,0)"/>
<!-- Edge:    76   99 -->
<line x1="198.43" y1="348.53" x2="129.93" y2="253.96" style="stroke-width:2.00;stroke:rgb(0,0,0)"/>
<!-- Edge:    77   99 -->
<line x1="157.13" y1="333.65" x2="129.93" y2="253.96" style="stroke-width:2.00;stroke:rgb(0,0,0)"/>
<!-- Edge:    78   99 -->
<line x1="245.77" y1="117.95" x2="129.93" y2="253.96" style="stroke-width:2.00;stroke:rgb(0,0,0)"/>
<!-- Edge:    84   99 -->
<line x1="236.70" y1="155.14" x2="129.93" y2="253.96" style="stroke-width:2.00;stroke:rgb(0,0,0)"/>
<!-- Edge:    90   99 -->
<line x1="125.90" y1="304.96" x2="129.93" y2="253.96" style="stroke-width:2.00;stroke:rgb(0,0,0)"/>

<!-- Vertex:     1 -->
<ellipse cx="93.93" cy="180.07" rx="10.00" ry="10.00" style="fill:rgb(0,255,255);stroke:rgb(102,0,0);stroke-width:0.50;"/>
<!-- Vertex:     2 -->
<ellipse cx="925.91" cy="168.08" rx="10.00" ry="10.00" style="fill:rgb(0,255,255);stroke:rgb(102,0,0);stroke-width:0.50;"/>
<!-- Vertex:     3 -->
<ellipse cx="997.72" cy="843.96" rx="10.00" ry="10.00" style="fill:rgb(0,255,255);stroke:rgb(102,0,0);stroke-width:0.50;"/>
<!-- Vertex:     4 -->
<ellipse cx="764.50" cy="168.08" rx="10.00" ry="10.00" style="fill:rgb(0,255,255);stroke:rgb(102,0,0);stroke-width:0.50;"/>
<!-- Vertex:     5 -->
<ellipse cx="845.20" cy="168.08" rx="10.00" ry="10.00" style="fill:rgb(0,255,255);stroke:rgb(102,0,0);stroke-width:0.50;"/>
<!-- Vertex:     6 -->
<ellipse cx="368.65" cy="110.51" rx="10.00" ry="10.00" style="fill:rgb(0,255,255);stroke:rgb(102,0,0);stroke-width:0.50;"/>
<!-- Vertex:     7 -->
<ellipse cx="531.82" cy="435.66" rx="10.00" ry="10.00" style="fill:rgb(0,255,255);stroke:rgb(102,0,0);stroke-width:0.50;"/>
<!-- Vertex:     8 -->
<ellipse cx="1114.26" cy="727.25" rx="10.00" ry="10.00" style="fill:rgb(0,255,255);stroke:rgb(102,0,0);stroke-width:0.50;"/>
<!-- Vertex:     9 -->
<ellipse cx="1087.32" cy="168.08" rx="10.00" ry="10.00" style="fill:rgb(0,255,255);stroke:rgb(102,0,0);stroke-width:0.50;"/>
<!-- Vertex:    10 -->
<ellipse cx="181.30" cy="130.70" rx="10.00" ry="10.00" style="fill:rgb(0,255,255);stroke:rgb(102,0,0);stroke-width:0.50;"/>
<!-- Vertex:    11 -->
<ellipse cx="1168.02" cy="168.08" rx="10.00" ry="10.00" style="fill:rgb(0,255,255);stroke:rgb(102,0,0);stroke-width:0.50;"/>
<!-- Vertex:    12 -->
<ellipse cx="1248.72" cy="168.08" rx="10.00" ry="10.00" style="fill:rgb(0,255,255);stroke:rgb(102,0,0);stroke-width:0.50;"/>
<!-- Vertex:    13 -->
<ellipse cx="298.45" cy="435.48" rx="10.00" ry="10.00" style="fill:rgb(0,255,255);stroke:rgb(102,0,0);stroke-width:0.50;"/>
<!-- Vertex:    14 -->
<ellipse cx="1006.61" cy="168.08" rx="10.00" ry="10.00" style="fill:rgb(0,255,255);stroke:rgb(102,0,0);stroke-width:0.50;"/>
<!-- Vertex:    15 -->
<ellipse cx="398.87" cy="376.16" rx="10.00" ry="10.00" style="fill:rgb(255,255,0);stroke:rgb(102,0,0);stroke-width:0.50;"/>
<!-- Vertex:    16 -->
<ellipse cx="415.00" cy="435.48" rx="10.00" ry="10.00" style="fill:rgb(0,255,255);stroke:rgb(102,0,0);stroke-width:0.50;"/>
<!-- Vertex:    17 -->
<ellipse cx="1230.80" cy="493.84" rx="10.00" ry="10.00" style="fill:rgb(0,255,255);stroke:rgb(102,0,0);stroke-width:0.50;"/>
<!-- Vertex:    18 -->
<ellipse cx="432.11" cy="287.96" rx="10.00" ry="10.00" style="fill:rgb(0,255,255);stroke:rgb(102,0,0);stroke-width:0.50;"/>
<!-- Vertex:    19 -->
<ellipse cx="368.65" cy="328.34" rx="10.00" ry="10.00" style="fill:rgb(0,255,255);stroke:rgb(102,0,0);stroke-width:0.50;"/>
<!-- Vertex:    20 -->
<ellipse cx="881.17" cy="435.48" rx="10.00" ry="10.00" style="fill:rgb(0,255,255);stroke:rgb(102,0,0);stroke-width:0.50;"/>
<!-- Vertex:    21 -->
<ellipse cx="997.72" cy="435.48" rx="10.00" ry="10.00" style="fill:rgb(0,255,255);stroke:rgb(102,0,0);stroke-width:0.50;"/>
<!-- Vertex:    22 -->
<ellipse cx="1114.26" cy="435.48" rx="10.00" ry="10.00" style="fill:rgb(0,255,255);stroke:rgb(102,0,0);stroke-width:0.50;"/>
<!-- Vertex:    23 -->
<ellipse cx="92.67" cy="341.09" rx="10.00" ry="10.00" style="fill:rgb(0,255,255);stroke:rgb(102,0,0);stroke-width:0.50;"/>
<!-- Vertex:    24 -->
<ellipse cx="1230.80" cy="435.48" rx="10.00" ry="10.00" style="fill:rgb(0,255,255);stroke:rgb(102,0,0);stroke-width:0.50;"/>
<!-- Vertex:    25 -->
<ellipse cx="298.45" cy="493.84" rx="10.00" ry="10.00" style="fill:rgb(0,255,255);stroke:rgb(102,0,0);stroke-width:0.50;"/>
<!-- Vertex:    26 -->
<ellipse cx="415.00" cy="493.84" rx="10.00" ry="10.00" style="fill:rgb(0,255,255);stroke:rgb(102,0,0);stroke-width:0.50;"/>
<!-- Vertex:    27 -->
<ellipse cx="531.54" cy="493.84" rx="10.00" ry="10.00" style="fill:rgb(0,255,255);stroke:rgb(102,0,0);stroke-width:0.50;"/>
<!-- Vertex:    28 -->
<ellipse cx="648.09" cy="493.84" rx="10.00" ry="10.00" style="fill:rgb(0,255,255);stroke:rgb(102,0,0);stroke-width:0.50;"/>
<!-- Vertex:    29 -->
<ellipse cx="395.85" cy="197.64" rx="10.00" ry="10.00" style="fill:rgb(0,255,255);stroke:rgb(102,0,0);stroke-width:0.50;"/>
<!-- Vertex:    30 -->
<ellipse cx="764.63" cy="493.84" rx="10.00" ry="10.00" style="fill:rgb(0,255,255);stroke:rgb(102,0,0);stroke-width:0.50;"/>
<!-- Vertex:    31 -->
<ellipse cx="881.17" cy="493.84" rx="10.00" ry="10.00" style="fill:rgb(0,255,255);stroke:rgb(102,0,0);stroke-width:0.50;"/>
<!-- Vertex:    32 -->
<ellipse cx="462.32" cy="352.78" rx="10.00" ry="10.00" style="fill:rgb(0,255,255);stroke:rgb(102,0,0);stroke-width:0.50;"/>
<!-- Vertex:    33 -->
<ellipse cx="997.72" cy="493.84" rx="10.00" ry="10.00" style="fill:rgb(0,255,255);stroke:rgb(102,0,0);stroke-width:0.50;"/>
<!-- Vertex:    34 -->
<ellipse cx="1114.26" cy="493.84" rx="10.00" ry="10.00" style="fill:rgb(0,255,255);stroke:rgb(102,0,0);stroke-width:0.50;"/>
<!-- Vertex:    35 -->
<ellipse cx="648.09" cy="435.48" rx="10.00" ry="10.00" style="fill:rgb(0,255,255);stroke:rgb(102,0,0);stroke-width:0.50;"/>
<!-- Vertex:    36 -->
<ellipse cx="490.53" cy="314.53" rx="10.00" ry="10.00" style="fill:rgb(0,255,255);stroke:rgb(102,0,0);stroke-width:0.50;"/>
<!-- Vertex:    37 -->
<ellipse cx="764.63" cy="435.48" rx="10.00" ry="10.00" style="fill:rgb(0,255,255);stroke:rgb(102,0,0);stroke-width:0.50;"/>
<!-- Vertex:    38 -->
<ellipse cx="531.54" cy="552.19" rx="10.00" ry="10.00" style="fill:rgb(0,255,255);stroke:rgb(102,0,0);stroke-width:0.50;"/>
<!-- Vertex:    39 -->
<ellipse cx="997.72" cy="727.25" rx="10.00" ry="10.00" style="fill:rgb(0,255,255);stroke:rgb(102,0,0);stroke-width:0.50;"/>
<!-- Vertex:    40 -->
<ellipse cx="648.09" cy="552.19" rx="10.00" ry="10.00" style="fill:rgb(0,255,255);stroke:rgb(102,0,0);stroke-width:0.50;"/>
<!-- Vertex:    41 -->
<ellipse cx="764.63" cy="552.19" rx="10.00" ry="10.00" style="fill:rgb(0,255,255);stroke:rgb(102,0,0);stroke-width:0.50;"/>
<!-- Vertex:    42 -->
<ellipse cx="84.61" cy="293.27" rx="10.00" ry="10.00" style="fill:rgb(0,255,255);stroke:rgb(102,0,0);stroke-width:0.50;"/>
<!-- Vertex:    43 -->
<ellipse cx="881.17" cy="552.19" rx="10.00" ry="10.00" style="fill:rgb(0,255,255);stroke:rgb(102,0,0);stroke-width:0.50;"/>
<!-- Vertex:    44 -->
<ellipse cx="997.72" cy="552.19" rx="10.00" ry="10.00" style="fill:rgb(0,255,255);stroke:rgb(102,0,0);stroke-width:0.50;"/>
<!-- Vertex:    45 -->
<ellipse cx="1114.26" cy="552.19" rx="10.00" ry="10.00" style="fill:rgb(0,255,255);stroke:rgb(102,0,0);stroke-width:0.50;"/>
<!-- Vertex:    46 -->
<ellipse cx="256.85" cy="194.45" rx="10.00" ry="10.00" style="fill:rgb(0,255,255);stroke:rgb(102,0,0);stroke-width:0.50;"/>
<!-- Vertex:    47 -->
<ellipse cx="1230.80" cy="552.19" rx="10.00" ry="10.00" style="fill:rgb(0,255,255);stroke:rgb(102,0,0);stroke-width:0.50;"/>
<!-- Vertex:    48 -->
<ellipse cx="298.45" cy="610.54" rx="10.00" ry="10.00" style="fill:rgb(0,255,255);stroke:rgb(102,0,0);stroke-width:0.50;"/>
<!-- Vertex:    49 -->
<ellipse cx="415.00" cy="610.54" rx="10.00" ry="10.00" style="fill:rgb(0,255,255);stroke:rgb(102,0,0);stroke-width:0.50;"/>
<!-- Vertex:    50 -->
<ellipse cx="531.54" cy="610.54" rx="10.00" ry="10.00" style="fill:rgb(0,255,255);stroke:rgb(102,0,0);stroke-width:0.50;"/>
<!-- Vertex:    51 -->
<ellipse cx="648.09" cy="610.54" rx="10.00" ry="10.00" style="fill:rgb(0,255,255);stroke:rgb(102,0,0);stroke-width:0.50;"/>
<!-- Vertex:    52 -->
<ellipse cx="764.63" cy="610.54" rx="10.00" ry="10.00" style="fill:rgb(0,255,255);stroke:rgb(102,0,0);stroke-width:0.50;"/>
<!-- Vertex:    53 -->
<ellipse cx="881.17" cy="610.54" rx="10.00" ry="10.00" style="fill:rgb(0,255,255);stroke:rgb(102,0,0);stroke-width:0.50;"/>
<!-- Vertex:    54 -->
<ellipse cx="997.72" cy="610.54" rx="10.00" ry="10.00" style="fill:rgb(0,255,255);stroke:rgb(102,0,0);stroke-width:0.50;"/>
<!-- Vertex:    55 -->
<ellipse cx="1114.26" cy="610.54" rx="10.00" ry="10.00" style="fill:rgb(0,255,255);stroke:rgb(102,0,0);stroke-width:0.50;"/>
<!-- Vertex:    56 -->
<ellipse cx="1230.80" cy="610.54" rx="10.00" ry="10.00" style="fill:rgb(0,255,255);stroke:rgb(102,0,0);stroke-width:0.50;"/>
<!-- Vertex:    57 -->
<ellipse cx="289.08" cy="249.71" rx="10.00" ry="10.00" style="fill:rgb(0,255,255);stroke:rgb(102,0,0);stroke-width:0.50;"/>
<!-- Vertex:    58 -->
<ellipse cx="298.45" cy="668.90" rx="10.00" ry="10.00" style="fill:rgb(0,255,255);stroke:rgb(102,0,0);stroke-width:0.50;"/>
<!-- Vertex:    59 -->
<ellipse cx="415.00" cy="668.90" rx="10.00" ry="10.00" style="fill:rgb(0,255,255);stroke:rgb(102,0,0);stroke-width:0.50;"/>
<!-- Vertex:    60 -->
<ellipse cx="531.54" cy="668.90" rx="10.00" ry="10.00" style="fill:rgb(0,255,255);stroke:rgb(102,0,0);stroke-width:0.50;"/>
<!-- Vertex:    61 -->
<ellipse cx="648.09" cy="668.90" rx="10.00" ry="10.00" style="fill:rgb(0,255,255);stroke:rgb(102,0,0);stroke-width:0.50;"/>
<!-- Vertex:    62 -->
<ellipse cx="764.63" cy="668.90" rx="10.00" ry="10.00" style="fill:rgb(0,255,255);stroke:rgb(102,0,0);stroke-width:0.50;"/>
<!-- Vertex:    63 -->
<ellipse cx="881.17" cy="668.90" rx="10.00" ry="10.00" style="fill:rgb(0,255,255);stroke:rgb(102,0,0);stroke-width:0.50;"/>
<!-- Vertex:    64 -->
<ellipse cx="997.72" cy="668.90" rx="10.00" ry="10.00" style="fill:rgb(0,255,255);stroke:rgb(102,0,0);stroke-width:0.50;"/>
<!-- Vertex:    65 -->
<ellipse cx="1114.26" cy="668.90" rx="10.00" ry="10.00" style="fill:rgb(0,255,255);stroke:rgb(102,0,0);stroke-width:0.50;"/>
<!-- Vertex:    66 -->
<ellipse cx="1230.80" cy="668.90" rx="10.00" ry="10.00" style="fill:rgb(0,255,255);stroke:rgb(102,0,0);stroke-width:0.50;"/>
<!-- Vertex:    67 -->
<ellipse cx="358.58" cy="376.16" rx="10.00" ry="10.00" style="fill:rgb(255,255,0);stroke:rgb(102,0,0);stroke-width:0.50;"/>
<!-- Vertex:    68 -->
<ellipse cx="280.01" cy="352.78" rx="10.00" ry="10.00" style="fill:rgb(0,255,255);stroke:rgb(102,0,0);stroke-width:0.50;"/>
<!-- Vertex:    69 -->
<ellipse cx="298.45" cy="727.25" rx="10.00" ry="10.00" style="fill:rgb(0,255,255);stroke:rgb(102,0,0);stroke-width:0.50;"/>
<!-- Vertex:    70 -->
<ellipse cx="415.00" cy="727.25" rx="10.00" ry="10.00" style="fill:rgb(0,255,255);stroke:rgb(102,0,0);stroke-width:0.50;"/>
<!-- Vertex:    71 -->
<ellipse cx="531.54" cy="727.25" rx="10.00" ry="10.00" style="fill:rgb(0,255,255);stroke:rgb(102,0,0);stroke-width:0.50;"/>
<!-- Vertex:    72 -->
<ellipse cx="648.09" cy="727.25" rx="10.00" ry="10.00" style="fill:rgb(0,255,255);stroke:rgb(102,0,0);stroke-width:0.50;"/>
<!-- Vertex:    73 -->
<ellipse cx="298.45" cy="552.19" rx="10.00" ry="10.00" style="fill:rgb(0,255,255);stroke:rgb(102,0,0);stroke-width:0.50;"/>
<!-- Vertex:    74 -->
<ellipse cx="415.00" cy="552.19" rx="10.00" ry="10.00" style="fill:rgb(0,255,255);stroke:rgb(102,0,0);stroke-width:0.50;"/>
<!-- Vertex:    75 -->
<ellipse cx="764.63" cy="727.25" rx="10.00" ry="10.00" style="fill:rgb(0,255,255);stroke:rgb(102,0,0);stroke-width:0.50;"/>
<!-- Vertex:    76 -->
<ellipse cx="198.43" cy="348.53" rx="10.00" ry="10.00" style="fill:rgb(0,255,255);stroke:rgb(102,0,0);stroke-width:0.50;"/>
<!-- Vertex:    77 -->
<ellipse cx="157.13" cy="333.65" rx="10.00" ry="10.00" style="fill:rgb(0,255,255);stroke:rgb(102,0,0);stroke-width:0.50;"/>
<!-- Vertex:    78 -->
<ellipse cx="245.77" cy="117.95" rx="10.00" ry="10.00" style="fill:rgb(0,255,255);stroke:rgb(102,0,0);stroke-width:0.50;"/>
<!-- Vertex:    79 -->
<ellipse cx="881.17" cy="727.25" rx="10.00" ry="10.00" style="fill:rgb(0,255,255);stroke:rgb(102,0,0);stroke-width:0.50;"/>
<!-- Vertex:    80 -->
<ellipse cx="1230.80" cy="727.25" rx="10.00" ry="10.00" style="fill:rgb(0,255,255);stroke:rgb(102,0,0);stroke-width:0.50;"/>
<!-- Vertex:    81 -->
<ellipse cx="298.45" cy="785.60" rx="10.00" ry="10.00" style="fill:rgb(0,255,255);stroke:rgb(102,0,0);stroke-width:0.50;"/>
<!-- Vertex:    82 -->
<ellipse cx="415.00" cy="785.60" rx="10.00" ry="10.00" style="fill:rgb(0,255,255);stroke:rgb(102,0,0);stroke-width:0.50;"/>
<!-- Vertex:    83 -->
<ellipse cx="531.54" cy="785.60" rx="10.00" ry="10.00" style="fill:rgb(0,255,255);stroke:rgb(102,0,0);stroke-width:0.50;"/>
<!-- Vertex:    84 -->
<ellipse cx="236.70" cy="155.14" rx="10.00" ry="10.00" style="fill:rgb(0,255,255);stroke:rgb(102,0,0);stroke-width:0.50;"/>
<!-- Vertex:    85 -->
<ellipse cx="648.09" cy="785.60" rx="10.00" ry="10.00" style="fill:rgb(0,255,255);stroke:rgb(102,0,0);stroke-width:0.50;"/>
<!-- Vertex:    86 -->
<ellipse cx="764.63" cy="785.60" rx="10.00" ry="10.00" style="fill:rgb(0,255,255);stroke:rgb(102,0,0);stroke-width:0.50;"/>
<!-- Vertex:    87 -->
<ellipse cx="881.17" cy="785.60" rx="10.00" ry="10.00" style="fill:rgb(0,255,255);stroke:rgb(102,0,0);stroke-width:0.50;"/>
<!-- Vertex:    88 -->
<ellipse cx="997.72" cy="785.60" rx="10.00" ry="10.00" style="fill:rgb(0,255,255);stroke:rgb(102,0,0);stroke-width:0.50;"/>
<!-- Vertex:    89 -->
<ellipse cx="1114.26" cy="785.60" rx="10.00" ry="10.00" style="fill:rgb(0,255,255);stroke:rgb(102,0,0);stroke-width:0.50;"/>
<!-- Vertex:    90 -->
<ellipse cx="125.90" cy="304.96" rx="10.00" ry="10.00" style="fill:rgb(0,255,255);stroke:rgb(102,0,0);stroke-width:0.50;"/>
<!-- Vertex:    91 -->
<ellipse cx="1230.80" cy="785.60" rx="10.00" ry="10.00" style="fill:rgb(0,255,255);stroke:rgb(102,0,0);stroke-width:0.50;"/>
<!-- Vertex:    92 -->
<ellipse cx="298.45" cy="843.96" rx="10.00" ry="10.00" style="fill:rgb(0,255,255);stroke:rgb(102,0,0);stroke-width:0.50;"/>
<!-- Vertex:    93 -->
<ellipse cx="465.34" cy="202.95" rx="10.00" ry="10.00" style="fill:rgb(0,255,255);stroke:rgb(102,0,0);stroke-width:0.50;"/>
<!-- Vertex:    94 -->
<ellipse cx="415.00" cy="843.96" rx="10.00" ry="10.00" style="fill:rgb(0,255,255);stroke:rgb(102,0,0);stroke-width:0.50;"/>
<!-- Vertex:    95 -->
<ellipse cx="531.54" cy="843.96" rx="10.00" ry="10.00" style="fill:rgb(0,255,255);stroke:rgb(102,0,0);stroke-width:0.50;"/>
<!-- Vertex:    96 -->
<ellipse cx="435.13" cy="144.51" rx="10.00" ry="10.00" style="fill:rgb(0,255,255);stroke:rgb(102,0,0);stroke-width:0.50;"/>
<!-- Vertex:    97 -->
<ellipse cx="648.09" cy="843.96" rx="10.00" ry="10.00" style="fill:rgb(0,255,255);stroke:rgb(102,0,0);stroke-width:0.50;"/>
<!-- Vertex:    98 -->
<ellipse cx="764.63" cy="843.96" rx="10.00" ry="10.00" style="fill:rgb(0,255,255);stroke:rgb(102,0,0);stroke-width:0.50;"/>
<!-- Vertex:    99 -->
<ellipse cx="129.93" cy="253.96" rx="10.00" ry="10.00" style="fill:rgb(0,255,255);stroke:rgb(102,0,0);stroke-width:0.50;"/>
<!-- Vertex:   100 -->
<ellipse cx="728.07" cy="752.58" rx="10.00" ry="10.00" style="fill:rgb(0,255,255);stroke:rgb(102,0,0);stroke-width:0.50;"/>
</g>         <!-- Layer Network -->
</svg>
