<?xml version="1.0" encoding="UTF-8"?>
<!-- Title: 2. Y:\OneDrive - Monash University\Year 2\Semester 2\FIT2082\Simulation\NetworkSimilaritySimulation\network.net (100) -->
<!-- Creator: Pajek 5.13: http://mrvar.fdv.uni-lj.si/pajek -->
<!-- CreationDate: 08-26-2021, 8:35:55 -->
<svg xml:space="preserve" viewBox="0 0 1113 781" xmlns="http://www.w3.org/2000/svg" xmlns:xlink="http://www.w3.org/1999/xlink" xmlns:inkscape="http://www.inkscape.org/namespaces/inkscape">
<title>2. Y:\OneDrive - Monash University\Year 2\Semester 2\FIT2082\Simulation\NetworkSimilaritySimulation\network.net (100)</title>
<g inkscape:groupmode="layer" id="PajekSig" inkscape:label="PajekSignature">
<g transform="translate(3 763)">
<g transform="scale(0.1)">
<g transform="matrix(1 0 0 -1 0 96)">
<path d="M   7.67  49.98 L  31.76  72.76 L  46.91  78.63
         L  57.23  80.49 M  72.86  65.23 L  65.73  83.25
         L  57.06  75.49 L  56.75  68.65 M  76.27  68.03
         L  75.65  84.50 L  93.92  91.02 L 107.24  74.87
         M  80.29  67.72 L  89.28  84.81 L 104.77  81.70
         L 116.23  73.31 L 121.18  59.33 M  56.75  81.08
         L  71.31  64.30"
         style="fill:none; stroke:saddlebrown; stroke-width:5;"/>
<path d="M  86.18  70.21 L  91.45  73.00 L  95.78  69.58
         M  91.14  60.88 L  96.09  62.75 L  98.26  59.33"
         style="fill:none; stroke:saddlebrown; stroke-width:1.5;"/>
<path d="M  81.07  49.08 L  87.81  49.08 L  93.30  54.38
         L  93.30  60.88 L  93.30  67.39 L  87.81  72.69
         L  81.07  72.69 L  74.33  72.69 L  68.83  67.39
         L  68.83  60.88 L  68.83  54.38 L  74.33  49.08
         L  81.07  49.08 z"
         style="fill:maroon; stroke:saddlebrown; stroke-width:1;"/>
<path d="M  54.63  37.53 L  68.53  43.56 L  75.39  55.85
         L  69.90  65.35 L  64.41  72.86 L  48.60  74.06
         L  34.71  68.04 L  20.81  55.02 L  15.95  40.72
         L  17.44  33.22 L  24.92  28.72 L  40.73  30.51
         L  54.63  37.53 z"
         style="fill:maroon; stroke:saddlebrown; stroke-width:1;" />
<path d="M  77.82  50.63 L 103.84  59.33 L 131.10  43.80
         L 139.46  27.95 L 139.15  15.83 M  35.99   5.27
         L  47.15  32.92 L  61.71  50.01 L  70.07  46.90
         L  82.77  45.04 L  83.39  27.02 L  65.42  12.11
         M  68.52  50.63 L  91.14  49.39 L 103.53  43.17
         L 117.16  22.67 L 115.30   8.38"
         style="fill:none; stroke:saddlebrown; stroke-width:5;"/>
<path d="M  41.57  54.98 L  60.16  64.61 M  52.41  66.17
         L  57.99  57.47"
         style="fill:none; stroke:white; stroke-width:5;"/>
</g>
</g>
<animateMotion dur="20s" path="M3 0 L1095 0" begin="120s" fill="freeze"/>
</g>
<g transform="translate(3 763)">
<g transform="scale(0.1)">
<text x="5" y="140" style="font-family:Brush Script MT;font-size:75px;fill:green;">Pajek</text>
</g>
<animateMotion dur="0.1s" path="M3 0 L1095 0" begin="120s" fill="freeze"/>
</g>
</g>      <!-- Layer Signature -->

<g inkscape:groupmode="layer" id="PajekNet" inkscape:label="PajekNetwork">

<g id="c0on" visibility="visible">
  <ellipse style="fill:rgb(102,0,0);stroke:rgb(102,0,0);stroke-width:0.00" rx="5" ry="5" cx="6" cy="10"/> 
</g>
<g id="c0off" visibility="hidden">
  <ellipse style="fill:rgb(255,255,255);stroke:rgb(102,0,0);stroke-width:2.50" rx="4.25" ry="4.25" cx="6" cy="10"/>
  <set attributeName="visibility" attributeType="CSS" to="hidden" begin="c0off.click"/>
  <set attributeName="visibility" attributeType="CSS" to="visible" begin="c0on.click"/>
</g>
<text style="font-size:10px;font-style:normal;" xml:space="preserve" x="16" y="14"><tspan>EdgesLabels</tspan></text>

<g id="c0">
  <set attributeName="visibility" attributeType="CSS" to="hidden" begin="c0on.click"/>
  <set attributeName="visibility" attributeType="CSS" to="visible" begin="c0off.click"/>
<g transform="translate(344.46 134.74)">
<g transform="rotate(-73.37)">
<text x="0" y="0" style="font-family:Arial;font-size:15.00px;fill:rgb(0,0,0);text-anchor:middle;">5</text>
</g></g>
<g transform="translate(394.20 105.28)">
<g transform="rotate(32.71)">
<text x="0" y="0" style="font-family:Arial;font-size:15.00px;fill:rgb(0,0,0);text-anchor:middle;">5</text>
</g></g>
<g transform="translate(586.90 131.83)">
<g transform="rotate(-57.83)">
<text x="0" y="0" style="font-family:Arial;font-size:15.00px;fill:rgb(0,0,0);text-anchor:middle;">5</text>
</g></g>
<g transform="translate(412.44 91.79)">
<g transform="rotate(-73.48)">
<text x="0" y="0" style="font-family:Arial;font-size:15.00px;fill:rgb(0,0,0);text-anchor:middle;">5</text>
</g></g>
<g transform="translate(593.53 86.58)">
<g transform="rotate(245.57)">
<text x="0" y="0" style="font-family:Arial;font-size:15.00px;fill:rgb(0,0,0);text-anchor:middle;">5</text>
</g></g>
<g transform="translate(916.31 94.57)">
<g transform="rotate(-50.93)">
<text x="0" y="0" style="font-family:Arial;font-size:15.00px;fill:rgb(0,0,0);text-anchor:middle;">5</text>
</g></g>
<g transform="translate(840.03 93.29)">
<g transform="rotate(40.68)">
<text x="0" y="0" style="font-family:Arial;font-size:15.00px;fill:rgb(0,0,0);text-anchor:middle;">5</text>
</g></g>
<g transform="translate(242.78 96.61)">
<g transform="rotate(78.50)">
<text x="0" y="0" style="font-family:Arial;font-size:15.00px;fill:rgb(0,0,0);text-anchor:middle;">5</text>
</g></g>
<g transform="translate(272.45 63.25)">
<g transform="rotate(9.76)">
<text x="0" y="0" style="font-family:Arial;font-size:15.00px;fill:rgb(0,0,0);text-anchor:middle;">5</text>
</g></g>
<g transform="translate(276.28 147.56)">
<g transform="rotate(37.91)">
<text x="0" y="0" style="font-family:Arial;font-size:15.00px;fill:rgb(0,0,0);text-anchor:middle;">5</text>
</g></g>
<g transform="translate(317.80 131.42)">
<g transform="rotate(98.51)">
<text x="0" y="0" style="font-family:Arial;font-size:15.00px;fill:rgb(0,0,0);text-anchor:middle;">6</text>
</g></g>
<g transform="translate(170.80 93.23)">
<g transform="rotate(136.34)">
<text x="0" y="0" style="font-family:Arial;font-size:15.00px;fill:rgb(0,0,0);text-anchor:middle;">5</text>
</g></g>
<g transform="translate(157.75 156.88)">
<g transform="rotate(75.51)">
<text x="0" y="0" style="font-family:Arial;font-size:15.00px;fill:rgb(0,0,0);text-anchor:middle;">8</text>
</g></g>
<g transform="translate(107.64 163.83)">
<g transform="rotate(128.81)">
<text x="0" y="0" style="font-family:Arial;font-size:15.00px;fill:rgb(0,0,0);text-anchor:middle;">6</text>
</g></g>
<g transform="translate(184.90 192.42)">
<g transform="rotate(130.30)">
<text x="0" y="0" style="font-family:Arial;font-size:15.00px;fill:rgb(0,0,0);text-anchor:middle;">6</text>
</g></g>
<g transform="translate(111.55 214.31)">
<g transform="rotate(182.17)">
<text x="0" y="0" style="font-family:Arial;font-size:15.00px;fill:rgb(0,0,0);text-anchor:middle;">6</text>
</g></g>
<g transform="translate(535.77 122.06)">
<g transform="rotate(163.01)">
<text x="0" y="0" style="font-family:Arial;font-size:15.00px;fill:rgb(0,0,0);text-anchor:middle;">5</text>
</g></g>
<g transform="translate(486.14 122.06)">
<g transform="rotate(196.99)">
<text x="0" y="0" style="font-family:Arial;font-size:15.00px;fill:rgb(0,0,0);text-anchor:middle;">6</text>
</g></g>
<g transform="translate(725.38 119.22)">
<g transform="rotate(227.70)">
<text x="0" y="0" style="font-family:Arial;font-size:15.00px;fill:rgb(0,0,0);text-anchor:middle;">5</text>
</g></g>
<g transform="translate(665.56 89.17)">
<g transform="rotate(-66.68)">
<text x="0" y="0" style="font-family:Arial;font-size:15.00px;fill:rgb(0,0,0);text-anchor:middle;">5</text>
</g></g>
</g>

<g id="c1on" visibility="visible">
  <ellipse style="fill:rgb(102,0,0);stroke:rgb(102,0,0);stroke-width:0.00" rx="5" ry="5" cx="6" cy="23"/> 
</g>
<g id="c1off" visibility="hidden">
  <ellipse style="fill:rgb(255,255,255);stroke:rgb(102,0,0);stroke-width:2.50" rx="4.25" ry="4.25" cx="6" cy="23"/>
  <set attributeName="visibility" attributeType="CSS" to="hidden" begin="c1off.click"/>
  <set attributeName="visibility" attributeType="CSS" to="visible" begin="c1on.click"/>
</g>
<text style="font-size:10px;font-style:normal;" xml:space="preserve" x="16" y="27"><tspan>Edges</tspan></text>

<g id="c1">
  <set attributeName="visibility" attributeType="CSS" to="hidden" begin="c1on.click"/>
  <set attributeName="visibility" attributeType="CSS" to="visible" begin="c1off.click"/>
<!-- Edge:     3    5 -->
<line x1="342.46" y1="176.39" x2="365.63" y2="98.82" style="stroke-width:2.00;stroke:rgb(0,112,145)"/>
<!-- Edge:     5    8 -->
<line x1="365.63" y1="98.82" x2="411.96" y2="128.57" style="stroke-width:2.00;stroke:rgb(0,112,145)"/>
<!-- Edge:     7   11 -->
<line x1="576.72" y1="166.81" x2="614.02" y2="107.51" style="stroke-width:2.00;stroke:rgb(0,112,145)"/>
<!-- Edge:     8    9 -->
<line x1="411.96" y1="128.57" x2="432.09" y2="60.70" style="stroke-width:2.00;stroke:rgb(0,112,145)"/>
<!-- Edge:    11   15 -->
<line x1="614.02" y1="107.51" x2="591.25" y2="57.38" style="stroke-width:2.00;stroke:rgb(0,112,145)"/>
<!-- Edge:    12   13 -->
<line x1="906.70" y1="122.27" x2="941.44" y2="79.48" style="stroke-width:2.00;stroke:rgb(0,112,145)"/>
<!-- Edge:    29   34 -->
<line x1="796.60" y1="69.15" x2="870.43" y2="132.60" style="stroke-width:2.00;stroke:rgb(0,112,145)"/>
<!-- Edge:    43   45 -->
<line x1="226.24" y1="65.45" x2="239.72" y2="131.76" style="stroke-width:2.00;stroke:rgb(0,112,145)"/>
<!-- Edge:    43   46 -->
<line x1="226.24" y1="65.45" x2="315.27" y2="80.76" style="stroke-width:2.00;stroke:rgb(0,112,145)"/>
<!-- Edge:    45   47 -->
<line x1="239.72" y1="131.76" x2="300.55" y2="179.13" style="stroke-width:2.00;stroke:rgb(0,112,145)"/>
<!-- Edge:    46   47 -->
<line x1="315.27" y1="80.76" x2="300.55" y2="179.13" style="stroke-width:2.00;stroke:rgb(0,112,145)"/>
<!-- Edge:    59   63 -->
<line x1="191.82" y1="59.35" x2="135.98" y2="112.63" style="stroke-width:2.00;stroke:rgb(0,112,145)"/>
<!-- Edge:    63   67 -->
<line x1="135.98" y1="112.63" x2="160.15" y2="206.14" style="stroke-width:2.00;stroke:rgb(0,112,145)"/>
<!-- Edge:    63   71 -->
<line x1="135.98" y1="112.63" x2="63.71" y2="202.49" style="stroke-width:2.00;stroke:rgb(0,112,145)"/>
<!-- Edge:    66   67 -->
<line x1="194.40" y1="165.76" x2="160.15" y2="206.14" style="stroke-width:2.00;stroke:rgb(0,112,145)"/>
<!-- Edge:    67   71 -->
<line x1="160.15" y1="206.14" x2="63.71" y2="202.49" style="stroke-width:2.00;stroke:rgb(0,112,145)"/>
<!-- Edge:    74   76 -->
<line x1="554.75" y1="105.80" x2="510.96" y2="119.18" style="stroke-width:2.00;stroke:rgb(0,112,145)"/>
<!-- Edge:    76   78 -->
<line x1="510.96" y1="119.18" x2="467.16" y2="105.80" style="stroke-width:2.00;stroke:rgb(0,112,145)"/>
<!-- Edge:    84   90 -->
<line x1="777.82" y1="161.99" x2="687.74" y2="63.00" style="stroke-width:2.00;stroke:rgb(0,112,145)"/>
<!-- Edge:    87   90 -->
<line x1="661.76" y1="123.26" x2="687.74" y2="63.00" style="stroke-width:2.00;stroke:rgb(0,112,145)"/>
</g>

<!-- Vertex:     1 -->
<ellipse cx="204.30" cy="741.95" rx="10.00" ry="10.00" style="fill:rgb(255,255,0);stroke:rgb(102,0,0);stroke-width:0.50;"/>
<!-- Vertex:     2 -->
<ellipse cx="316.48" cy="322.35" rx="10.00" ry="10.00" style="fill:rgb(0,255,255);stroke:rgb(102,0,0);stroke-width:0.50;"/>
<!-- Vertex:     3 -->
<ellipse cx="342.46" cy="176.39" rx="10.00" ry="10.00" style="fill:rgb(0,255,255);stroke:rgb(102,0,0);stroke-width:0.50;"/>
<!-- Vertex:     4 -->
<ellipse cx="108.23" cy="249.23" rx="10.00" ry="10.00" style="fill:rgb(0,255,255);stroke:rgb(102,0,0);stroke-width:0.50;"/>
<!-- Vertex:     5 -->
<ellipse cx="365.63" cy="98.82" rx="10.00" ry="10.00" style="fill:rgb(0,255,255);stroke:rgb(102,0,0);stroke-width:0.50;"/>
<!-- Vertex:     6 -->
<ellipse cx="212.36" cy="322.35" rx="10.00" ry="10.00" style="fill:rgb(0,255,255);stroke:rgb(102,0,0);stroke-width:0.50;"/>
<!-- Vertex:     7 -->
<ellipse cx="576.72" cy="166.81" rx="10.00" ry="10.00" style="fill:rgb(0,255,255);stroke:rgb(102,0,0);stroke-width:0.50;"/>
<!-- Vertex:     8 -->
<ellipse cx="411.96" cy="128.57" rx="10.00" ry="10.00" style="fill:rgb(0,255,255);stroke:rgb(102,0,0);stroke-width:0.50;"/>
<!-- Vertex:     9 -->
<ellipse cx="432.09" cy="60.70" rx="10.00" ry="10.00" style="fill:rgb(0,255,255);stroke:rgb(102,0,0);stroke-width:0.50;"/>
<!-- Vertex:    10 -->
<ellipse cx="212.36" cy="687.96" rx="10.00" ry="10.00" style="fill:rgb(0,255,255);stroke:rgb(102,0,0);stroke-width:0.50;"/>
<!-- Vertex:    11 -->
<ellipse cx="614.02" cy="107.51" rx="10.00" ry="10.00" style="fill:rgb(0,255,255);stroke:rgb(102,0,0);stroke-width:0.50;"/>
<!-- Vertex:    12 -->
<ellipse cx="906.70" cy="122.27" rx="10.00" ry="10.00" style="fill:rgb(0,255,255);stroke:rgb(102,0,0);stroke-width:0.50;"/>
<!-- Vertex:    13 -->
<ellipse cx="941.44" cy="79.48" rx="10.00" ry="10.00" style="fill:rgb(0,255,255);stroke:rgb(102,0,0);stroke-width:0.50;"/>
<!-- Vertex:    14 -->
<ellipse cx="1065.41" cy="85.73" rx="10.00" ry="10.00" style="fill:rgb(0,255,255);stroke:rgb(102,0,0);stroke-width:0.50;"/>
<!-- Vertex:    15 -->
<ellipse cx="591.25" cy="57.38" rx="10.00" ry="10.00" style="fill:rgb(0,255,255);stroke:rgb(102,0,0);stroke-width:0.50;"/>
<!-- Vertex:    16 -->
<ellipse cx="212.36" cy="249.23" rx="10.00" ry="10.00" style="fill:rgb(0,255,255);stroke:rgb(102,0,0);stroke-width:0.50;"/>
<!-- Vertex:    17 -->
<ellipse cx="108.23" cy="322.35" rx="10.00" ry="10.00" style="fill:rgb(0,255,255);stroke:rgb(102,0,0);stroke-width:0.50;"/>
<!-- Vertex:    18 -->
<ellipse cx="628.86" cy="322.35" rx="10.00" ry="10.00" style="fill:rgb(0,255,255);stroke:rgb(102,0,0);stroke-width:0.50;"/>
<!-- Vertex:    19 -->
<ellipse cx="1045.36" cy="322.35" rx="10.00" ry="10.00" style="fill:rgb(0,255,255);stroke:rgb(102,0,0);stroke-width:0.50;"/>
<!-- Vertex:    20 -->
<ellipse cx="837.11" cy="541.71" rx="10.00" ry="10.00" style="fill:rgb(0,255,255);stroke:rgb(102,0,0);stroke-width:0.50;"/>
<!-- Vertex:    21 -->
<ellipse cx="1045.36" cy="614.83" rx="10.00" ry="10.00" style="fill:rgb(0,255,255);stroke:rgb(102,0,0);stroke-width:0.50;"/>
<!-- Vertex:    22 -->
<ellipse cx="524.74" cy="249.23" rx="10.00" ry="10.00" style="fill:rgb(0,255,255);stroke:rgb(102,0,0);stroke-width:0.50;"/>
<!-- Vertex:    23 -->
<ellipse cx="1001.37" cy="85.73" rx="10.00" ry="10.00" style="fill:rgb(0,255,255);stroke:rgb(102,0,0);stroke-width:0.50;"/>
<!-- Vertex:    24 -->
<ellipse cx="732.99" cy="249.23" rx="10.00" ry="10.00" style="fill:rgb(0,255,255);stroke:rgb(102,0,0);stroke-width:0.50;"/>
<!-- Vertex:    25 -->
<ellipse cx="837.11" cy="249.23" rx="10.00" ry="10.00" style="fill:rgb(0,255,255);stroke:rgb(102,0,0);stroke-width:0.50;"/>
<!-- Vertex:    26 -->
<ellipse cx="941.24" cy="249.23" rx="10.00" ry="10.00" style="fill:rgb(0,255,255);stroke:rgb(102,0,0);stroke-width:0.50;"/>
<!-- Vertex:    27 -->
<ellipse cx="1045.36" cy="249.23" rx="10.00" ry="10.00" style="fill:rgb(0,255,255);stroke:rgb(102,0,0);stroke-width:0.50;"/>
<!-- Vertex:    28 -->
<ellipse cx="316.48" cy="249.23" rx="10.00" ry="10.00" style="fill:rgb(0,255,255);stroke:rgb(102,0,0);stroke-width:0.50;"/>
<!-- Vertex:    29 -->
<ellipse cx="796.60" cy="69.15" rx="10.00" ry="10.00" style="fill:rgb(0,255,255);stroke:rgb(102,0,0);stroke-width:0.50;"/>
<!-- Vertex:    30 -->
<ellipse cx="420.61" cy="322.35" rx="10.00" ry="10.00" style="fill:rgb(0,255,255);stroke:rgb(102,0,0);stroke-width:0.50;"/>
<!-- Vertex:    31 -->
<ellipse cx="524.74" cy="322.35" rx="10.00" ry="10.00" style="fill:rgb(0,255,255);stroke:rgb(102,0,0);stroke-width:0.50;"/>
<!-- Vertex:    32 -->
<ellipse cx="732.99" cy="322.35" rx="10.00" ry="10.00" style="fill:rgb(0,255,255);stroke:rgb(102,0,0);stroke-width:0.50;"/>
<!-- Vertex:    33 -->
<ellipse cx="941.24" cy="322.35" rx="10.00" ry="10.00" style="fill:rgb(0,255,255);stroke:rgb(102,0,0);stroke-width:0.50;"/>
<!-- Vertex:    34 -->
<ellipse cx="870.43" cy="132.60" rx="10.00" ry="10.00" style="fill:rgb(0,255,255);stroke:rgb(102,0,0);stroke-width:0.50;"/>
<!-- Vertex:    35 -->
<ellipse cx="420.61" cy="541.71" rx="10.00" ry="10.00" style="fill:rgb(0,255,255);stroke:rgb(102,0,0);stroke-width:0.50;"/>
<!-- Vertex:    36 -->
<ellipse cx="732.99" cy="541.71" rx="10.00" ry="10.00" style="fill:rgb(0,255,255);stroke:rgb(102,0,0);stroke-width:0.50;"/>
<!-- Vertex:    37 -->
<ellipse cx="1045.36" cy="541.71" rx="10.00" ry="10.00" style="fill:rgb(0,255,255);stroke:rgb(102,0,0);stroke-width:0.50;"/>
<!-- Vertex:    38 -->
<ellipse cx="732.99" cy="614.83" rx="10.00" ry="10.00" style="fill:rgb(0,255,255);stroke:rgb(102,0,0);stroke-width:0.50;"/>
<!-- Vertex:    39 -->
<ellipse cx="108.23" cy="395.47" rx="10.00" ry="10.00" style="fill:rgb(0,255,255);stroke:rgb(102,0,0);stroke-width:0.50;"/>
<!-- Vertex:    40 -->
<ellipse cx="212.36" cy="395.47" rx="10.00" ry="10.00" style="fill:rgb(0,255,255);stroke:rgb(102,0,0);stroke-width:0.50;"/>
<!-- Vertex:    41 -->
<ellipse cx="316.48" cy="395.47" rx="10.00" ry="10.00" style="fill:rgb(0,255,255);stroke:rgb(102,0,0);stroke-width:0.50;"/>
<!-- Vertex:    42 -->
<ellipse cx="628.86" cy="249.23" rx="10.00" ry="10.00" style="fill:rgb(0,255,255);stroke:rgb(102,0,0);stroke-width:0.50;"/>
<!-- Vertex:    43 -->
<ellipse cx="226.24" cy="65.45" rx="10.00" ry="10.00" style="fill:rgb(0,255,255);stroke:rgb(102,0,0);stroke-width:0.50;"/>
<!-- Vertex:    44 -->
<ellipse cx="628.86" cy="395.47" rx="10.00" ry="10.00" style="fill:rgb(0,255,255);stroke:rgb(102,0,0);stroke-width:0.50;"/>
<!-- Vertex:    45 -->
<ellipse cx="239.72" cy="131.76" rx="10.00" ry="10.00" style="fill:rgb(0,255,255);stroke:rgb(102,0,0);stroke-width:0.50;"/>
<!-- Vertex:    46 -->
<ellipse cx="315.27" cy="80.76" rx="10.00" ry="10.00" style="fill:rgb(0,255,255);stroke:rgb(102,0,0);stroke-width:0.50;"/>
<!-- Vertex:    47 -->
<ellipse cx="300.55" cy="179.13" rx="10.00" ry="10.00" style="fill:rgb(0,255,255);stroke:rgb(102,0,0);stroke-width:0.50;"/>
<!-- Vertex:    48 -->
<ellipse cx="732.99" cy="395.47" rx="10.00" ry="10.00" style="fill:rgb(0,255,255);stroke:rgb(102,0,0);stroke-width:0.50;"/>
<!-- Vertex:    49 -->
<ellipse cx="837.11" cy="395.47" rx="10.00" ry="10.00" style="fill:rgb(0,255,255);stroke:rgb(102,0,0);stroke-width:0.50;"/>
<!-- Vertex:    50 -->
<ellipse cx="941.24" cy="395.47" rx="10.00" ry="10.00" style="fill:rgb(0,255,255);stroke:rgb(102,0,0);stroke-width:0.50;"/>
<!-- Vertex:    51 -->
<ellipse cx="1045.36" cy="395.47" rx="10.00" ry="10.00" style="fill:rgb(0,255,255);stroke:rgb(102,0,0);stroke-width:0.50;"/>
<!-- Vertex:    52 -->
<ellipse cx="108.23" cy="468.59" rx="10.00" ry="10.00" style="fill:rgb(0,255,255);stroke:rgb(102,0,0);stroke-width:0.50;"/>
<!-- Vertex:    53 -->
<ellipse cx="212.36" cy="468.59" rx="10.00" ry="10.00" style="fill:rgb(0,255,255);stroke:rgb(102,0,0);stroke-width:0.50;"/>
<!-- Vertex:    54 -->
<ellipse cx="316.48" cy="468.59" rx="10.00" ry="10.00" style="fill:rgb(0,255,255);stroke:rgb(102,0,0);stroke-width:0.50;"/>
<!-- Vertex:    55 -->
<ellipse cx="420.61" cy="468.59" rx="10.00" ry="10.00" style="fill:rgb(0,255,255);stroke:rgb(102,0,0);stroke-width:0.50;"/>
<!-- Vertex:    56 -->
<ellipse cx="524.74" cy="468.59" rx="10.00" ry="10.00" style="fill:rgb(0,255,255);stroke:rgb(102,0,0);stroke-width:0.50;"/>
<!-- Vertex:    57 -->
<ellipse cx="420.61" cy="249.23" rx="10.00" ry="10.00" style="fill:rgb(0,255,255);stroke:rgb(102,0,0);stroke-width:0.50;"/>
<!-- Vertex:    58 -->
<ellipse cx="732.99" cy="468.59" rx="10.00" ry="10.00" style="fill:rgb(0,255,255);stroke:rgb(102,0,0);stroke-width:0.50;"/>
<!-- Vertex:    59 -->
<ellipse cx="191.82" cy="59.35" rx="10.00" ry="10.00" style="fill:rgb(0,255,255);stroke:rgb(102,0,0);stroke-width:0.50;"/>
<!-- Vertex:    60 -->
<ellipse cx="941.24" cy="468.59" rx="10.00" ry="10.00" style="fill:rgb(0,255,255);stroke:rgb(102,0,0);stroke-width:0.50;"/>
<!-- Vertex:    61 -->
<ellipse cx="1045.36" cy="468.59" rx="10.00" ry="10.00" style="fill:rgb(0,255,255);stroke:rgb(102,0,0);stroke-width:0.50;"/>
<!-- Vertex:    62 -->
<ellipse cx="108.23" cy="541.71" rx="10.00" ry="10.00" style="fill:rgb(0,255,255);stroke:rgb(102,0,0);stroke-width:0.50;"/>
<!-- Vertex:    63 -->
<ellipse cx="135.98" cy="112.63" rx="10.00" ry="10.00" style="fill:rgb(0,255,255);stroke:rgb(102,0,0);stroke-width:0.50;"/>
<!-- Vertex:    64 -->
<ellipse cx="212.36" cy="541.71" rx="10.00" ry="10.00" style="fill:rgb(0,255,255);stroke:rgb(102,0,0);stroke-width:0.50;"/>
<!-- Vertex:    65 -->
<ellipse cx="316.48" cy="541.71" rx="10.00" ry="10.00" style="fill:rgb(0,255,255);stroke:rgb(102,0,0);stroke-width:0.50;"/>
<!-- Vertex:    66 -->
<ellipse cx="194.40" cy="165.76" rx="10.00" ry="10.00" style="fill:rgb(0,255,255);stroke:rgb(102,0,0);stroke-width:0.50;"/>
<!-- Vertex:    67 -->
<ellipse cx="160.15" cy="206.14" rx="10.00" ry="10.00" style="fill:rgb(0,255,255);stroke:rgb(102,0,0);stroke-width:0.50;"/>
<!-- Vertex:    68 -->
<ellipse cx="837.11" cy="322.35" rx="10.00" ry="10.00" style="fill:rgb(0,255,255);stroke:rgb(102,0,0);stroke-width:0.50;"/>
<!-- Vertex:    69 -->
<ellipse cx="628.86" cy="468.59" rx="10.00" ry="10.00" style="fill:rgb(0,255,255);stroke:rgb(102,0,0);stroke-width:0.50;"/>
<!-- Vertex:    70 -->
<ellipse cx="837.11" cy="468.59" rx="10.00" ry="10.00" style="fill:rgb(0,255,255);stroke:rgb(102,0,0);stroke-width:0.50;"/>
<!-- Vertex:    71 -->
<ellipse cx="63.71" cy="202.49" rx="10.00" ry="10.00" style="fill:rgb(0,255,255);stroke:rgb(102,0,0);stroke-width:0.50;"/>
<!-- Vertex:    72 -->
<ellipse cx="524.74" cy="541.71" rx="10.00" ry="10.00" style="fill:rgb(0,255,255);stroke:rgb(102,0,0);stroke-width:0.50;"/>
<!-- Vertex:    73 -->
<ellipse cx="628.86" cy="541.71" rx="10.00" ry="10.00" style="fill:rgb(0,255,255);stroke:rgb(102,0,0);stroke-width:0.50;"/>
<!-- Vertex:    74 -->
<ellipse cx="554.75" cy="105.80" rx="10.00" ry="10.00" style="fill:rgb(0,255,255);stroke:rgb(102,0,0);stroke-width:0.50;"/>
<!-- Vertex:    75 -->
<ellipse cx="941.24" cy="541.71" rx="10.00" ry="10.00" style="fill:rgb(0,255,255);stroke:rgb(102,0,0);stroke-width:0.50;"/>
<!-- Vertex:    76 -->
<ellipse cx="510.96" cy="119.18" rx="10.00" ry="10.00" style="fill:rgb(0,255,255);stroke:rgb(102,0,0);stroke-width:0.50;"/>
<!-- Vertex:    77 -->
<ellipse cx="108.23" cy="614.83" rx="10.00" ry="10.00" style="fill:rgb(0,255,255);stroke:rgb(102,0,0);stroke-width:0.50;"/>
<!-- Vertex:    78 -->
<ellipse cx="467.16" cy="105.80" rx="10.00" ry="10.00" style="fill:rgb(0,255,255);stroke:rgb(102,0,0);stroke-width:0.50;"/>
<!-- Vertex:    79 -->
<ellipse cx="212.36" cy="614.83" rx="10.00" ry="10.00" style="fill:rgb(0,255,255);stroke:rgb(102,0,0);stroke-width:0.50;"/>
<!-- Vertex:    80 -->
<ellipse cx="316.48" cy="614.83" rx="10.00" ry="10.00" style="fill:rgb(0,255,255);stroke:rgb(102,0,0);stroke-width:0.50;"/>
<!-- Vertex:    81 -->
<ellipse cx="420.61" cy="614.83" rx="10.00" ry="10.00" style="fill:rgb(0,255,255);stroke:rgb(102,0,0);stroke-width:0.50;"/>
<!-- Vertex:    82 -->
<ellipse cx="524.74" cy="614.83" rx="10.00" ry="10.00" style="fill:rgb(0,255,255);stroke:rgb(102,0,0);stroke-width:0.50;"/>
<!-- Vertex:    83 -->
<ellipse cx="628.86" cy="614.83" rx="10.00" ry="10.00" style="fill:rgb(0,255,255);stroke:rgb(102,0,0);stroke-width:0.50;"/>
<!-- Vertex:    84 -->
<ellipse cx="777.82" cy="161.99" rx="10.00" ry="10.00" style="fill:rgb(0,255,255);stroke:rgb(102,0,0);stroke-width:0.50;"/>
<!-- Vertex:    85 -->
<ellipse cx="837.11" cy="614.83" rx="10.00" ry="10.00" style="fill:rgb(0,255,255);stroke:rgb(102,0,0);stroke-width:0.50;"/>
<!-- Vertex:    86 -->
<ellipse cx="941.24" cy="614.83" rx="10.00" ry="10.00" style="fill:rgb(0,255,255);stroke:rgb(102,0,0);stroke-width:0.50;"/>
<!-- Vertex:    87 -->
<ellipse cx="661.76" cy="123.26" rx="10.00" ry="10.00" style="fill:rgb(0,255,255);stroke:rgb(102,0,0);stroke-width:0.50;"/>
<!-- Vertex:    88 -->
<ellipse cx="420.61" cy="395.47" rx="10.00" ry="10.00" style="fill:rgb(0,255,255);stroke:rgb(102,0,0);stroke-width:0.50;"/>
<!-- Vertex:    89 -->
<ellipse cx="108.23" cy="687.96" rx="10.00" ry="10.00" style="fill:rgb(0,255,255);stroke:rgb(102,0,0);stroke-width:0.50;"/>
<!-- Vertex:    90 -->
<ellipse cx="687.74" cy="63.00" rx="10.00" ry="10.00" style="fill:rgb(0,255,255);stroke:rgb(102,0,0);stroke-width:0.50;"/>
<!-- Vertex:    91 -->
<ellipse cx="524.74" cy="395.47" rx="10.00" ry="10.00" style="fill:rgb(0,255,255);stroke:rgb(102,0,0);stroke-width:0.50;"/>
<!-- Vertex:    92 -->
<ellipse cx="316.48" cy="687.96" rx="10.00" ry="10.00" style="fill:rgb(0,255,255);stroke:rgb(102,0,0);stroke-width:0.50;"/>
<!-- Vertex:    93 -->
<ellipse cx="420.61" cy="687.96" rx="10.00" ry="10.00" style="fill:rgb(0,255,255);stroke:rgb(102,0,0);stroke-width:0.50;"/>
<!-- Vertex:    94 -->
<ellipse cx="524.74" cy="687.96" rx="10.00" ry="10.00" style="fill:rgb(0,255,255);stroke:rgb(102,0,0);stroke-width:0.50;"/>
<!-- Vertex:    95 -->
<ellipse cx="628.86" cy="687.96" rx="10.00" ry="10.00" style="fill:rgb(0,255,255);stroke:rgb(102,0,0);stroke-width:0.50;"/>
<!-- Vertex:    96 -->
<ellipse cx="732.99" cy="687.96" rx="10.00" ry="10.00" style="fill:rgb(0,255,255);stroke:rgb(102,0,0);stroke-width:0.50;"/>
<!-- Vertex:    97 -->
<ellipse cx="837.11" cy="687.96" rx="10.00" ry="10.00" style="fill:rgb(0,255,255);stroke:rgb(102,0,0);stroke-width:0.50;"/>
<!-- Vertex:    98 -->
<ellipse cx="941.24" cy="687.96" rx="10.00" ry="10.00" style="fill:rgb(0,255,255);stroke:rgb(102,0,0);stroke-width:0.50;"/>
<!-- Vertex:    99 -->
<ellipse cx="1045.36" cy="687.96" rx="10.00" ry="10.00" style="fill:rgb(0,255,255);stroke:rgb(102,0,0);stroke-width:0.50;"/>
<!-- Vertex:   100 -->
<ellipse cx="100.18" cy="741.95" rx="10.00" ry="10.00" style="fill:rgb(255,255,0);stroke:rgb(102,0,0);stroke-width:0.50;"/>
</g>         <!-- Layer Network -->
</svg>
