<?xml version="1.0" encoding="UTF-8"?>
<!-- Title: 41. Y:\OneDrive - Monash University\Year 2\Semester 2\FIT2082\Simulation\NetworkSimilaritySimulation\network.net (50) -->
<!-- Creator: Pajek 5.13: http://mrvar.fdv.uni-lj.si/pajek -->
<!-- CreationDate: 08-26-2021, 10:03:05 -->
<svg xml:space="preserve" viewBox="0 0 799 786" xmlns="http://www.w3.org/2000/svg" xmlns:xlink="http://www.w3.org/1999/xlink" xmlns:inkscape="http://www.inkscape.org/namespaces/inkscape">
<title>41. Y:\OneDrive - Monash University\Year 2\Semester 2\FIT2082\Simulation\NetworkSimilaritySimulation\network.net (50)</title>
<g inkscape:groupmode="layer" id="PajekSig" inkscape:label="PajekSignature">
<g transform="translate(3 768)">
<g transform="scale(0.1)">
<g transform="matrix(1 0 0 -1 0 96)">
<path d="M   7.67  49.98 L  31.76  72.76 L  46.91  78.63
         L  57.23  80.49 M  72.86  65.23 L  65.73  83.25
         L  57.06  75.49 L  56.75  68.65 M  76.27  68.03
         L  75.65  84.50 L  93.92  91.02 L 107.24  74.87
         M  80.29  67.72 L  89.28  84.81 L 104.77  81.70
         L 116.23  73.31 L 121.18  59.33 M  56.75  81.08
         L  71.31  64.30"
         style="fill:none; stroke:saddlebrown; stroke-width:5;"/>
<path d="M  86.18  70.21 L  91.45  73.00 L  95.78  69.58
         M  91.14  60.88 L  96.09  62.75 L  98.26  59.33"
         style="fill:none; stroke:saddlebrown; stroke-width:1.5;"/>
<path d="M  81.07  49.08 L  87.81  49.08 L  93.30  54.38
         L  93.30  60.88 L  93.30  67.39 L  87.81  72.69
         L  81.07  72.69 L  74.33  72.69 L  68.83  67.39
         L  68.83  60.88 L  68.83  54.38 L  74.33  49.08
         L  81.07  49.08 z"
         style="fill:maroon; stroke:saddlebrown; stroke-width:1;"/>
<path d="M  54.63  37.53 L  68.53  43.56 L  75.39  55.85
         L  69.90  65.35 L  64.41  72.86 L  48.60  74.06
         L  34.71  68.04 L  20.81  55.02 L  15.95  40.72
         L  17.44  33.22 L  24.92  28.72 L  40.73  30.51
         L  54.63  37.53 z"
         style="fill:maroon; stroke:saddlebrown; stroke-width:1;" />
<path d="M  77.82  50.63 L 103.84  59.33 L 131.10  43.80
         L 139.46  27.95 L 139.15  15.83 M  35.99   5.27
         L  47.15  32.92 L  61.71  50.01 L  70.07  46.90
         L  82.77  45.04 L  83.39  27.02 L  65.42  12.11
         M  68.52  50.63 L  91.14  49.39 L 103.53  43.17
         L 117.16  22.67 L 115.30   8.38"
         style="fill:none; stroke:saddlebrown; stroke-width:5;"/>
<path d="M  41.57  54.98 L  60.16  64.61 M  52.41  66.17
         L  57.99  57.47"
         style="fill:none; stroke:white; stroke-width:5;"/>
</g>
</g>
<animateMotion dur="20s" path="M3 0 L781 0" begin="120s" fill="freeze"/>
</g>
<g transform="translate(3 768)">
<g transform="scale(0.1)">
<text x="5" y="140" style="font-family:Brush Script MT;font-size:75px;fill:green;">Pajek</text>
</g>
<animateMotion dur="0.1s" path="M3 0 L781 0" begin="120s" fill="freeze"/>
</g>
</g>      <!-- Layer Signature -->

<g inkscape:groupmode="layer" id="PajekNet" inkscape:label="PajekNetwork">

<!-- Edge:     2    6 -->
<line x1="568.29" y1="39.30" x2="615.16" y2="99.28" style="stroke-width:2.00;stroke:rgb(0,112,145)"/>
<!-- Edge:     4   13 -->
<line x1="281.82" y1="122.15" x2="282.83" y2="185.88" style="stroke-width:2.00;stroke:rgb(0,112,145)"/>
<!-- Edge:     5   10 -->
<line x1="213.19" y1="140.96" x2="191.08" y2="105.63" style="stroke-width:2.00;stroke:rgb(0,112,145)"/>
<!-- Edge:     5   12 -->
<line x1="213.19" y1="140.96" x2="238.96" y2="174.19" style="stroke-width:2.00;stroke:rgb(0,112,145)"/>
<!-- Edge:     6    9 -->
<line x1="615.16" y1="99.28" x2="661.73" y2="159.57" style="stroke-width:2.00;stroke:rgb(0,112,145)"/>
<!-- Edge:     7    9 -->
<line x1="707.66" y1="220.53" x2="661.73" y2="159.57" style="stroke-width:2.00;stroke:rgb(0,112,145)"/>
<!-- Edge:     8   12 -->
<line x1="235.36" y1="216.68" x2="238.96" y2="174.19" style="stroke-width:2.00;stroke:rgb(0,112,145)"/>
<!-- Edge:     8   15 -->
<line x1="235.36" y1="216.68" x2="267.27" y2="261.95" style="stroke-width:2.00;stroke:rgb(0,112,145)"/>
<!-- Edge:     8   17 -->
<line x1="235.36" y1="216.68" x2="270.71" y2="161.45" style="stroke-width:2.00;stroke:rgb(0,112,145)"/>
<!-- Edge:    11   14 -->
<line x1="319.89" y1="329.21" x2="280.94" y2="312.52" style="stroke-width:2.00;stroke:rgb(0,112,145)"/>
<!-- Edge:    11   18 -->
<line x1="319.89" y1="329.21" x2="359.37" y2="331.73" style="stroke-width:2.00;stroke:rgb(0,112,145)"/>
<!-- Edge:    12   17 -->
<line x1="238.96" y1="174.19" x2="270.71" y2="161.45" style="stroke-width:2.00;stroke:rgb(0,112,145)"/>
<!-- Edge:    13   16 -->
<line x1="282.83" y1="185.88" x2="314.87" y2="166.51" style="stroke-width:2.00;stroke:rgb(0,112,145)"/>
<!-- Edge:    13   23 -->
<line x1="282.83" y1="185.88" x2="262.63" y2="217.74" style="stroke-width:2.00;stroke:rgb(0,112,145)"/>
<!-- Edge:    14   15 -->
<line x1="280.94" y1="312.52" x2="267.27" y2="261.95" style="stroke-width:2.00;stroke:rgb(0,112,145)"/>
<!-- Edge:    14   26 -->
<line x1="280.94" y1="312.52" x2="255.57" y2="349.99" style="stroke-width:2.00;stroke:rgb(0,112,145)"/>
<!-- Edge:    15   23 -->
<line x1="267.27" y1="261.95" x2="262.63" y2="217.74" style="stroke-width:2.00;stroke:rgb(0,112,145)"/>
<!-- Edge:    16   17 -->
<line x1="314.87" y1="166.51" x2="270.71" y2="161.45" style="stroke-width:2.00;stroke:rgb(0,112,145)"/>
<!-- Edge:    16   21 -->
<line x1="314.87" y1="166.51" x2="347.81" y2="160.41" style="stroke-width:2.00;stroke:rgb(0,112,145)"/>
<!-- Edge:    18   20 -->
<line x1="359.37" y1="331.73" x2="371.96" y2="370.40" style="stroke-width:2.00;stroke:rgb(0,112,145)"/>
<!-- Edge:    18   22 -->
<line x1="359.37" y1="331.73" x2="390.53" y2="300.58" style="stroke-width:2.00;stroke:rgb(0,112,145)"/>
<!-- Edge:    19   21 -->
<line x1="378.68" y1="173.62" x2="347.81" y2="160.41" style="stroke-width:2.00;stroke:rgb(0,112,145)"/>
<!-- Edge:    19   25 -->
<line x1="378.68" y1="173.62" x2="372.73" y2="129.54" style="stroke-width:2.00;stroke:rgb(0,112,145)"/>
<!-- Edge:    19   28 -->
<line x1="378.68" y1="173.62" x2="402.25" y2="214.29" style="stroke-width:2.00;stroke:rgb(0,112,145)"/>
<!-- Edge:    21   25 -->
<line x1="347.81" y1="160.41" x2="372.73" y2="129.54" style="stroke-width:2.00;stroke:rgb(0,112,145)"/>
<!-- Edge:    22   39 -->
<line x1="390.53" y1="300.58" x2="413.46" y2="257.28" style="stroke-width:2.00;stroke:rgb(0,112,145)"/>
<!-- Edge:    24   31 -->
<line x1="124.52" y1="683.73" x2="121.81" y2="644.07" style="stroke-width:2.00;stroke:rgb(0,112,145)"/>
<!-- Edge:    25   29 -->
<line x1="372.73" y1="129.54" x2="383.71" y2="84.21" style="stroke-width:2.00;stroke:rgb(0,112,145)"/>
<!-- Edge:    26   30 -->
<line x1="255.57" y1="349.99" x2="232.72" y2="387.24" style="stroke-width:2.00;stroke:rgb(0,112,145)"/>
<!-- Edge:    27   30 -->
<line x1="237.80" y1="431.36" x2="232.72" y2="387.24" style="stroke-width:2.00;stroke:rgb(0,112,145)"/>
<!-- Edge:    27   32 -->
<line x1="237.80" y1="431.36" x2="222.59" y2="466.22" style="stroke-width:2.00;stroke:rgb(0,112,145)"/>
<!-- Edge:    27   34 -->
<line x1="237.80" y1="431.36" x2="207.95" y2="410.64" style="stroke-width:2.00;stroke:rgb(0,112,145)"/>
<!-- Edge:    28   39 -->
<line x1="402.25" y1="214.29" x2="413.46" y2="257.28" style="stroke-width:2.00;stroke:rgb(0,112,145)"/>
<!-- Edge:    29   35 -->
<line x1="383.71" y1="84.21" x2="393.11" y2="40.14" style="stroke-width:2.00;stroke:rgb(0,112,145)"/>
<!-- Edge:    30   34 -->
<line x1="232.72" y1="387.24" x2="207.95" y2="410.64" style="stroke-width:2.00;stroke:rgb(0,112,145)"/>
<!-- Edge:    31   38 -->
<line x1="121.81" y1="644.07" x2="110.61" y2="597.26" style="stroke-width:2.00;stroke:rgb(0,112,145)"/>
<!-- Edge:    32   41 -->
<line x1="222.59" y1="466.22" x2="190.34" y2="445.74" style="stroke-width:2.00;stroke:rgb(0,112,145)"/>
<!-- Edge:    33   36 -->
<line x1="545.25" y1="252.60" x2="519.32" y2="277.25" style="stroke-width:2.00;stroke:rgb(0,112,145)"/>
<!-- Edge:    33   48 -->
<line x1="545.25" y1="252.60" x2="511.33" y2="244.24" style="stroke-width:2.00;stroke:rgb(0,112,145)"/>
<!-- Edge:    34   41 -->
<line x1="207.95" y1="410.64" x2="190.34" y2="445.74" style="stroke-width:2.00;stroke:rgb(0,112,145)"/>
<!-- Edge:    36   40 -->
<line x1="519.32" y1="277.25" x2="487.00" y2="257.80" style="stroke-width:2.00;stroke:rgb(0,112,145)"/>
<!-- Edge:    36   48 -->
<line x1="519.32" y1="277.25" x2="511.33" y2="244.24" style="stroke-width:2.00;stroke:rgb(0,112,145)"/>
<!-- Edge:    38   42 -->
<line x1="110.61" y1="597.26" x2="73.55" y2="599.16" style="stroke-width:2.00;stroke:rgb(0,112,145)"/>
<!-- Edge:    38   46 -->
<line x1="110.61" y1="597.26" x2="131.32" y2="557.96" style="stroke-width:2.00;stroke:rgb(0,112,145)"/>
<!-- Edge:    39   44 -->
<line x1="413.46" y1="257.28" x2="451.27" y2="268.93" style="stroke-width:2.00;stroke:rgb(0,112,145)"/>
<!-- Edge:    40   44 -->
<line x1="487.00" y1="257.80" x2="451.27" y2="268.93" style="stroke-width:2.00;stroke:rgb(0,112,145)"/>
<!-- Edge:    40   48 -->
<line x1="487.00" y1="257.80" x2="511.33" y2="244.24" style="stroke-width:2.00;stroke:rgb(0,112,145)"/>
<!-- Edge:    41   45 -->
<line x1="190.34" y1="445.74" x2="158.59" y2="472.66" style="stroke-width:2.00;stroke:rgb(0,112,145)"/>
<!-- Edge:    42   49 -->
<line x1="73.55" y1="599.16" x2="39.95" y2="609.44" style="stroke-width:2.00;stroke:rgb(0,112,145)"/>
<!-- Edge:    43   45 -->
<line x1="148.48" y1="517.42" x2="158.59" y2="472.66" style="stroke-width:2.00;stroke:rgb(0,112,145)"/>
<!-- Edge:    43   46 -->
<line x1="148.48" y1="517.42" x2="131.32" y2="557.96" style="stroke-width:2.00;stroke:rgb(0,112,145)"/>
<!-- Edge:    44   50 -->
<line x1="451.27" y1="268.93" x2="464.78" y2="314.95" style="stroke-width:2.00;stroke:rgb(0,112,145)"/>
<!-- Edge:    45   47 -->
<line x1="158.59" y1="472.66" x2="125.63" y2="447.47" style="stroke-width:2.00;stroke:rgb(0,112,145)"/>

<!-- Vertex:     1 -->
<ellipse cx="179.80" cy="618.18" rx="10.00" ry="10.00" style="fill:rgb(255,217,188);stroke:rgb(102,0,0);stroke-width:0.50;"/>
<!-- Vertex:     2 -->
<ellipse cx="568.29" cy="39.30" rx="10.00" ry="10.00" style="fill:rgb(255,217,188);stroke:rgb(102,0,0);stroke-width:0.50;"/>
<!-- Vertex:     3 -->
<ellipse cx="160.61" cy="658.54" rx="10.00" ry="10.00" style="fill:rgb(255,217,188);stroke:rgb(102,0,0);stroke-width:0.50;"/>
<!-- Vertex:     4 -->
<ellipse cx="281.82" cy="122.15" rx="10.00" ry="10.00" style="fill:rgb(255,217,188);stroke:rgb(102,0,0);stroke-width:0.50;"/>
<!-- Vertex:     5 -->
<ellipse cx="213.19" cy="140.96" rx="10.00" ry="10.00" style="fill:rgb(255,217,188);stroke:rgb(102,0,0);stroke-width:0.50;"/>
<!-- Vertex:     6 -->
<ellipse cx="615.16" cy="99.28" rx="10.00" ry="10.00" style="fill:rgb(255,217,188);stroke:rgb(102,0,0);stroke-width:0.50;"/>
<!-- Vertex:     7 -->
<ellipse cx="707.66" cy="220.53" rx="10.00" ry="10.00" style="fill:rgb(255,217,188);stroke:rgb(102,0,0);stroke-width:0.50;"/>
<!-- Vertex:     8 -->
<ellipse cx="235.36" cy="216.68" rx="10.00" ry="10.00" style="fill:rgb(255,217,188);stroke:rgb(102,0,0);stroke-width:0.50;"/>
<!-- Vertex:     9 -->
<ellipse cx="661.73" cy="159.57" rx="10.00" ry="10.00" style="fill:rgb(255,217,188);stroke:rgb(102,0,0);stroke-width:0.50;"/>
<!-- Vertex:    10 -->
<ellipse cx="191.08" cy="105.63" rx="10.00" ry="10.00" style="fill:rgb(255,217,188);stroke:rgb(102,0,0);stroke-width:0.50;"/>
<!-- Vertex:    11 -->
<ellipse cx="319.89" cy="329.21" rx="10.00" ry="10.00" style="fill:rgb(255,217,188);stroke:rgb(102,0,0);stroke-width:0.50;"/>
<!-- Vertex:    12 -->
<ellipse cx="238.96" cy="174.19" rx="10.00" ry="10.00" style="fill:rgb(255,217,188);stroke:rgb(102,0,0);stroke-width:0.50;"/>
<!-- Vertex:    13 -->
<ellipse cx="282.83" cy="185.88" rx="10.00" ry="10.00" style="fill:rgb(255,217,188);stroke:rgb(102,0,0);stroke-width:0.50;"/>
<!-- Vertex:    14 -->
<ellipse cx="280.94" cy="312.52" rx="10.00" ry="10.00" style="fill:rgb(255,217,188);stroke:rgb(102,0,0);stroke-width:0.50;"/>
<!-- Vertex:    15 -->
<ellipse cx="267.27" cy="261.95" rx="10.00" ry="10.00" style="fill:rgb(255,217,188);stroke:rgb(102,0,0);stroke-width:0.50;"/>
<!-- Vertex:    16 -->
<ellipse cx="314.87" cy="166.51" rx="10.00" ry="10.00" style="fill:rgb(255,217,188);stroke:rgb(102,0,0);stroke-width:0.50;"/>
<!-- Vertex:    17 -->
<ellipse cx="270.71" cy="161.45" rx="10.00" ry="10.00" style="fill:rgb(255,217,188);stroke:rgb(102,0,0);stroke-width:0.50;"/>
<!-- Vertex:    18 -->
<ellipse cx="359.37" cy="331.73" rx="10.00" ry="10.00" style="fill:rgb(255,217,188);stroke:rgb(102,0,0);stroke-width:0.50;"/>
<!-- Vertex:    19 -->
<ellipse cx="378.68" cy="173.62" rx="10.00" ry="10.00" style="fill:rgb(255,217,188);stroke:rgb(102,0,0);stroke-width:0.50;"/>
<!-- Vertex:    20 -->
<ellipse cx="371.96" cy="370.40" rx="10.00" ry="10.00" style="fill:rgb(255,217,188);stroke:rgb(102,0,0);stroke-width:0.50;"/>
<!-- Vertex:    21 -->
<ellipse cx="347.81" cy="160.41" rx="10.00" ry="10.00" style="fill:rgb(255,217,188);stroke:rgb(102,0,0);stroke-width:0.50;"/>
<!-- Vertex:    22 -->
<ellipse cx="390.53" cy="300.58" rx="10.00" ry="10.00" style="fill:rgb(255,217,188);stroke:rgb(102,0,0);stroke-width:0.50;"/>
<!-- Vertex:    23 -->
<ellipse cx="262.63" cy="217.74" rx="10.00" ry="10.00" style="fill:rgb(255,217,188);stroke:rgb(102,0,0);stroke-width:0.50;"/>
<!-- Vertex:    24 -->
<ellipse cx="124.52" cy="683.73" rx="10.00" ry="10.00" style="fill:rgb(255,217,188);stroke:rgb(102,0,0);stroke-width:0.50;"/>
<!-- Vertex:    25 -->
<ellipse cx="372.73" cy="129.54" rx="10.00" ry="10.00" style="fill:rgb(255,217,188);stroke:rgb(102,0,0);stroke-width:0.50;"/>
<!-- Vertex:    26 -->
<ellipse cx="255.57" cy="349.99" rx="10.00" ry="10.00" style="fill:rgb(255,217,188);stroke:rgb(102,0,0);stroke-width:0.50;"/>
<!-- Vertex:    27 -->
<ellipse cx="237.80" cy="431.36" rx="10.00" ry="10.00" style="fill:rgb(255,217,188);stroke:rgb(102,0,0);stroke-width:0.50;"/>
<!-- Vertex:    28 -->
<ellipse cx="402.25" cy="214.29" rx="10.00" ry="10.00" style="fill:rgb(255,217,188);stroke:rgb(102,0,0);stroke-width:0.50;"/>
<!-- Vertex:    29 -->
<ellipse cx="383.71" cy="84.21" rx="10.00" ry="10.00" style="fill:rgb(255,217,188);stroke:rgb(102,0,0);stroke-width:0.50;"/>
<!-- Vertex:    30 -->
<ellipse cx="232.72" cy="387.24" rx="10.00" ry="10.00" style="fill:rgb(255,217,188);stroke:rgb(102,0,0);stroke-width:0.50;"/>
<!-- Vertex:    31 -->
<ellipse cx="121.81" cy="644.07" rx="10.00" ry="10.00" style="fill:rgb(255,217,188);stroke:rgb(102,0,0);stroke-width:0.50;"/>
<!-- Vertex:    32 -->
<ellipse cx="222.59" cy="466.22" rx="10.00" ry="10.00" style="fill:rgb(255,217,188);stroke:rgb(102,0,0);stroke-width:0.50;"/>
<!-- Vertex:    33 -->
<ellipse cx="545.25" cy="252.60" rx="10.00" ry="10.00" style="fill:rgb(255,217,188);stroke:rgb(102,0,0);stroke-width:0.50;"/>
<!-- Vertex:    34 -->
<ellipse cx="207.95" cy="410.64" rx="10.00" ry="10.00" style="fill:rgb(255,217,188);stroke:rgb(102,0,0);stroke-width:0.50;"/>
<!-- Vertex:    35 -->
<ellipse cx="393.11" cy="40.14" rx="10.00" ry="10.00" style="fill:rgb(255,217,188);stroke:rgb(102,0,0);stroke-width:0.50;"/>
<!-- Vertex:    36 -->
<ellipse cx="519.32" cy="277.25" rx="10.00" ry="10.00" style="fill:rgb(255,217,188);stroke:rgb(102,0,0);stroke-width:0.50;"/>
<!-- Vertex:    37 -->
<ellipse cx="759.05" cy="79.00" rx="10.00" ry="10.00" style="fill:rgb(255,217,188);stroke:rgb(102,0,0);stroke-width:0.50;"/>
<!-- Vertex:    38 -->
<ellipse cx="110.61" cy="597.26" rx="10.00" ry="10.00" style="fill:rgb(255,217,188);stroke:rgb(102,0,0);stroke-width:0.50;"/>
<!-- Vertex:    39 -->
<ellipse cx="413.46" cy="257.28" rx="10.00" ry="10.00" style="fill:rgb(255,217,188);stroke:rgb(102,0,0);stroke-width:0.50;"/>
<!-- Vertex:    40 -->
<ellipse cx="487.00" cy="257.80" rx="10.00" ry="10.00" style="fill:rgb(255,217,188);stroke:rgb(102,0,0);stroke-width:0.50;"/>
<!-- Vertex:    41 -->
<ellipse cx="190.34" cy="445.74" rx="10.00" ry="10.00" style="fill:rgb(255,217,188);stroke:rgb(102,0,0);stroke-width:0.50;"/>
<!-- Vertex:    42 -->
<ellipse cx="73.55" cy="599.16" rx="10.00" ry="10.00" style="fill:rgb(255,217,188);stroke:rgb(102,0,0);stroke-width:0.50;"/>
<!-- Vertex:    43 -->
<ellipse cx="148.48" cy="517.42" rx="10.00" ry="10.00" style="fill:rgb(255,217,188);stroke:rgb(102,0,0);stroke-width:0.50;"/>
<!-- Vertex:    44 -->
<ellipse cx="451.27" cy="268.93" rx="10.00" ry="10.00" style="fill:rgb(255,217,188);stroke:rgb(102,0,0);stroke-width:0.50;"/>
<!-- Vertex:    45 -->
<ellipse cx="158.59" cy="472.66" rx="10.00" ry="10.00" style="fill:rgb(255,217,188);stroke:rgb(102,0,0);stroke-width:0.50;"/>
<!-- Vertex:    46 -->
<ellipse cx="131.32" cy="557.96" rx="10.00" ry="10.00" style="fill:rgb(255,217,188);stroke:rgb(102,0,0);stroke-width:0.50;"/>
<!-- Vertex:    47 -->
<ellipse cx="125.63" cy="447.47" rx="10.00" ry="10.00" style="fill:rgb(255,217,188);stroke:rgb(102,0,0);stroke-width:0.50;"/>
<!-- Vertex:    48 -->
<ellipse cx="511.33" cy="244.24" rx="10.00" ry="10.00" style="fill:rgb(255,217,188);stroke:rgb(102,0,0);stroke-width:0.50;"/>
<!-- Vertex:    49 -->
<ellipse cx="39.95" cy="609.44" rx="10.00" ry="10.00" style="fill:rgb(255,217,188);stroke:rgb(102,0,0);stroke-width:0.50;"/>
<!-- Vertex:    50 -->
<ellipse cx="464.78" cy="314.95" rx="10.00" ry="10.00" style="fill:rgb(255,217,188);stroke:rgb(102,0,0);stroke-width:0.50;"/>
</g>         <!-- Layer Network -->
</svg>
